<svg xmlns="http://www.w3.org/2000/svg" xmlns:xlink="http://www.w3.org/1999/xlink" xmlns:lucid="lucid" width="2192" height="508"><g transform="translate(-1234 -651)" lucid:page-tab-id="wMnq734py8FV"><path d="M1000 500h2500v1000H1000z" fill="#f2f3f5"/><path d="M1276 698.78a6 6 0 0 1 6-6h230.67a6 6 0 0 1 6 6v413a6 6 0 0 1-6 6H1282a6 6 0 0 1-6-6z" stroke="#3a414a" stroke-width="3" fill="#fff"/><use xlink:href="#a" transform="matrix(1,0,0,1,1288.133333333333,714.0277777777777) translate(22.219444444444463 20.8)"/><use xlink:href="#b" transform="matrix(1,0,0,1,1288.133333333333,714.0277777777777) translate(134.74166666666665 20.8)"/><path d="M1841.1 698.78a6 6 0 0 1 6-6h1532.34a6 6 0 0 1 6 6v413a6 6 0 0 1-6 6H1847.1a6 6 0 0 1-6-6z" stroke="#3a414a" stroke-width="3" fill="#fff"/><use xlink:href="#c" transform="matrix(1,0,0,1,1918.3277777777776,714.0277777777777) translate(575.3638888888889 20.8)"/><use xlink:href="#d" transform="matrix(1,0,0,1,1918.3277777777776,714.0277777777777) translate(668.963888888889 20.8)"/><use xlink:href="#e" transform="matrix(1,0,0,1,1918.3277777777776,714.0277777777777) translate(736.7805555555556 20.8)"/><path d="M1841.1 762.44a6 6 0 0 1 6-6h249.34a6 6 0 0 1 6 6v349.34a6 6 0 0 1-6 6H1847.1a6 6 0 0 1-6-6z" stroke="#3a414a" stroke-width="3" fill="#fff"/><use xlink:href="#f" transform="matrix(1,0,0,1,1854.1777777777775,774.5111111111106) translate(34.58333333333334 20.8)"/><use xlink:href="#g" transform="matrix(1,0,0,1,1854.1777777777775,774.5111111111106) translate(119.66111111111113 20.8)"/><use xlink:href="#h" transform="matrix(1,0,0,1,1854.1777777777775,774.5111111111106) translate(150.93333333333334 20.8)"/><path d="M1313.33 762.44a6 6 0 0 1 6-6h193.34a6 6 0 0 1 6 6v349.34a6 6 0 0 1-6 6h-193.34a6 6 0 0 1-6-6z" stroke="#3a414a" stroke-width="3" fill="#fff"/><use xlink:href="#f" transform="matrix(1,0,0,1,1323.6,774.5111111111106) translate(9.083333333333343 20.8)"/><use xlink:href="#g" transform="matrix(1,0,0,1,1323.6,774.5111111111106) translate(94.16111111111113 20.8)"/><use xlink:href="#h" transform="matrix(1,0,0,1,1323.6,774.5111111111106) translate(125.43333333333334 20.8)"/><path d="M1838.1 917.33v2.95l-108.46-.02v-2.95zm-207.96-.04v2.94h-86.7v-2.97z" stroke="#000" stroke-width=".05"/><path d="M1839.6 917.33v2.95h-1.53v-2.95z"/><path stroke="#000" stroke-width=".05"/><path d="M1541.93 929.58l-18.76-10.83 18.76-10.83z"/><path d="M1543.4 932.14l-23.18-13.4 23.2-13.38zm-17.28-13.4l14.33 8.3v-16.57z" stroke="#000" stroke-width=".05"/><use xlink:href="#i" transform="matrix(1,0,0,1,1630.135797053382,908.1076340128985) translate(0 14.222222222222223)"/><use xlink:href="#j" transform="matrix(1,0,0,1,1630.135797053382,908.1076340128985) translate(63.061728395061735 14.222222222222223)"/><path d="M1630.14 1061.47l-108.47.13v-2.95l108.47-.13zm186.2-.22l-86.7.1v-2.95l86.7-.1z" stroke="#000" stroke-width=".05"/><path d="M1836.6 1059.75l-18.74 10.85-.03-21.66z"/><path d="M1839.56 1059.74l-23.17 13.42-.04-26.78zm-20.23 8.3l14.33-8.3-14.35-8.25z" stroke="#000" stroke-width=".05"/><path d="M1521.7 1061.6h-1.53v-2.95h1.53z"/><path stroke="#000" stroke-width=".05"/><use xlink:href="#k" transform="matrix(1,0,0,1,1630.1358374614495,1049.2664820865891) translate(0 14.222222222222223)"/><use xlink:href="#l" transform="matrix(1,0,0,1,1630.1358374614495,1049.2664820865891) translate(63.061728395061735 14.222222222222223)"/><path d="M2157.33 1023.33a6 6 0 0 1 6-6h325.6a6 6 0 0 1 6 6v76a6 6 0 0 1-6 6h-325.6a6 6 0 0 1-6-6z" stroke="#000" stroke-opacity="0" stroke-width="3" fill="#ffd9d9"/><use xlink:href="#m" transform="matrix(1,0,0,1,2174.213333333334,1021.7333333333332) translate(31.56944444444447 45.8)"/><use xlink:href="#n" transform="matrix(1,0,0,1,2174.213333333334,1021.7333333333332) translate(105.09166666666668 45.8)"/><path d="M3005.87 1023.33a6 6 0 0 1 6-6h351.46a6 6 0 0 1 6 6v76a6 6 0 0 1-6 6h-351.46a6 6 0 0 1-6-6z" stroke="#000" stroke-opacity="0" stroke-width="3" fill="#cfe4ff"/><use xlink:href="#o" transform="matrix(1,0,0,1,3024.0400000000004,1021.7333333333332) translate(155.53333333333336 45.8)"/><use xlink:href="#p" transform="matrix(1,0,0,1,3024.0400000000004,1021.7333333333332) translate(231.51111111111112 45.8)"/><use xlink:href="#q" transform="matrix(1,0,0,1,3024.0400000000004,1021.7333333333332) translate(271.6666666666667 45.8)"/><path d="M2157.33 1023.33a6 6 0 0 1 6-6h1200a6 6 0 0 1 6 6v76a6 6 0 0 1-6 6h-1200a6 6 0 0 1-6-6z" stroke="#3a414a" stroke-width="3" fill-opacity="0"/><use xlink:href="#r" transform="matrix(1,0,0,1,2217.933333333334,1021.7333333333332) translate(434.78333333333336 45.8)"/><use xlink:href="#s" transform="matrix(1,0,0,1,2217.933333333334,1021.7333333333332) translate(496.6777777777778 45.8)"/><use xlink:href="#t" transform="matrix(1,0,0,1,2217.933333333334,1021.7333333333332) translate(587.4611111111111 45.8)"/><path d="M2494.07 1016.72v-21.5M2494.07 1016.68v1.54" stroke="#000" stroke-width="3" fill="none"/><path d="M2494.07 974.97l10.84 18.76h-21.66z" stroke="#000" stroke-width="3"/><path d="M2398.87 936.76a6 6 0 0 1 6-6h174.02a6 6 0 0 1 6 6v29.2a6 6 0 0 1-6 6h-174.03a6 6 0 0 1-6-6z" fill="none"/><use xlink:href="#u" transform="matrix(1,0,0,1,2403.873333333333,935.7555555555555) translate(0 21.2)"/><use xlink:href="#v" transform="matrix(1,0,0,1,2403.873333333333,935.7555555555555) translate(60.666666666666664 21.2)"/><path d="M2951.73 1014.06v-18.83M2951.73 1014.02v1.54" stroke="#000" stroke-width="3" fill="none"/><path d="M2951.73 974.97l10.83 18.76h-21.67z" stroke="#000" stroke-width="3"/><path d="M2837.13 936.76a6 6 0 0 1 6-6h217.2a6 6 0 0 1 6 6v29.2a6 6 0 0 1-6 6h-217.2a6 6 0 0 1-6-6z" fill="none"/><use xlink:href="#w" transform="matrix(1,0,0,1,2842.125555555555,935.7555555555555) translate(0 21.2)"/><use xlink:href="#v" transform="matrix(1,0,0,1,2842.125555555555,935.7555555555555) translate(103.85555555555553 21.2)"/><path d="M2134.07 1061.33h-28.63" stroke="#000" stroke-width="3" fill="none"/><path d="M2154.33 1061.33l-18.76 10.84v-21.67z" stroke="#000" stroke-width="3"/><path d="M2105.48 1062.8h-1.54v-2.94h1.54z" stroke="#000" stroke-width=".05"/><path d="M1841.1 1044.53a6 6 0 0 1 6-6h33.6a6 6 0 0 1 6 6v33.6a6 6 0 0 1-6 6h-33.6a6 6 0 0 1-6-6z" stroke="#3a414a" stroke-width="3" fill="#fff"/><use xlink:href="#x" transform="matrix(1,0,0,1,1843.3911111111108,1040.8133333333333) translate(2.980555555555558 26.05)"/><path d="M1473.07 1044.53a6 6 0 0 1 6-6h33.6a6 6 0 0 1 6 6v33.6a6 6 0 0 1-6 6h-33.6a6 6 0 0 1-6-6z" stroke="#3a414a" stroke-width="3" fill="#fff"/><use xlink:href="#y" transform="matrix(1,0,0,1,1475.346666666667,1040.8133333333333) translate(4.425000000000001 26.05)"/><path d="M1473.07 905.33a6 6 0 0 1 6-6h33.6a6 6 0 0 1 6 6v33.6a6 6 0 0 1-6 6h-33.6a6 6 0 0 1-6-6z" stroke="#3a414a" stroke-width="3" fill="#fff"/><use xlink:href="#x" transform="matrix(1,0,0,1,1475.346666666667,901.6133333333331) translate(2.980555555555558 26.05)"/><path d="M1841.1 898.93a6 6 0 0 1 6-6h33.6a6 6 0 0 1 6 6v33.6a6 6 0 0 1-6 6h-33.6a6 6 0 0 1-6-6z" stroke="#3a414a" stroke-width="3" fill="#fff"/><use xlink:href="#y" transform="matrix(1,0,0,1,1843.3911111111108,895.213333333333) translate(4.425000000000001 26.05)"/><path d="M2042.44 898.93a6 6 0 0 1 6-6h48a6 6 0 0 1 6 6v33.6a6 6 0 0 1-6 6h-48a6 6 0 0 1-6-6z" stroke="#3a414a" stroke-width="3" fill="#fff"/><use xlink:href="#z" transform="matrix(1,0,0,1,2045.4444444444448,895.213333333333) translate(0.38611111111111285 26.05)"/><path d="M2039.44 915.73h-127.97" stroke="#000" stroke-width="3" fill="none"/><path d="M2040.94 917.2h-1.53v-2.94h1.54z" stroke="#000" stroke-width=".05"/><path d="M1891.2 915.73l18.77-10.83v21.67z" stroke="#000" stroke-width="3"/><path d="M2042.44 1044.53a6 6 0 0 1 6-6h48a6 6 0 0 1 6 6v33.6a6 6 0 0 1-6 6h-48a6 6 0 0 1-6-6z" stroke="#3a414a" stroke-width="3" fill="#fff"/><use xlink:href="#A" transform="matrix(1,0,0,1,2045.4444444444448,1040.8133333333333) translate(-0.4083333333333279 26.2)"/><path d="M2940.55 914.44l2.3.55 2.17.9 2 1.22 1.8 1.53 1.52 1.8 1.23 2 .9 2.17.55 2.3.18 2.22-2.94.23-.16-2-.44-1.84-.72-1.74-1-1.62-1.22-1.44-1.44-1.23-1.6-.98-1.75-.72-1.84-.44-1.95-.15h-550.43v-2.94h550.54zm-813.34 2.77v-2.94h95.93v2.95z" stroke="#000" stroke-width=".05"/><path d="M2125.7 926.57l-18.76-10.84 18.77-10.83z"/><path d="M2127.18 929.12l-23.2-13.4 23.2-13.38zm-17.3-13.4l14.35 8.3v-16.56z" stroke="#000" stroke-width=".05"/><path d="M2953.2 930.76h-2.95v-1.54h2.95z"/><path stroke="#000" stroke-width=".05"/><path d="M2480.7 914.44l2.3.55 2.17.9 2 1.22 1.8 1.53 1.53 1.8 1.23 2 .9 2.17.55 2.3.17 2.22-2.94.23-.15-2-.44-1.84-.7-1.74-1-1.62-1.23-1.44-1.43-1.23-1.6-.98-1.76-.72-1.84-.44-1.94-.15h-90.58v-2.94h90.7zm-353.5 2.77v-2.94h95.93v2.95z" stroke="#000" stroke-width=".05"/><path d="M2125.7 926.57l-18.76-10.84 18.77-10.83z"/><path d="M2127.18 929.12l-23.2-13.4 23.2-13.38zm-17.3-13.4l14.35 8.3v-16.56z" stroke="#000" stroke-width=".05"/><path d="M2493.36 930.76h-2.95v-1.54h2.96z"/><path stroke="#000" stroke-width=".05"/><g><use xlink:href="#B" transform="matrix(1,0,0,1,2223.127592592805,905.0666666666664) translate(0 14.222222222222223)"/><use xlink:href="#C" transform="matrix(1,0,0,1,2223.127592592805,905.0666666666664) translate(48.296296296296305 14.222222222222223)"/><use xlink:href="#D" transform="matrix(1,0,0,1,2223.127592592805,905.0666666666664) translate(89.62962962962965 14.222222222222223)"/></g><path d="M2493.87 1019.97v2.05m0 4.12v4.1m0 4.12v4.12m0 4.1v4.12m0 4.12v4.1m0 4.12v4.12m0 4.1v4.12m0 4.1v4.13m0 4.12v4.12m0 4.1v4.12m0 4.1v2.07M2493.87 1019.98v-.5" stroke="#000" fill="none"/><path d="M2493.8 1102.86l-.4.46v-1.1h.78z" stroke="#000" stroke-width=".05"/><path d="M2951.47 1016.33v2.05m0 4.1v4.08m0 4.1v4.08m0 4.1v4.08m0 4.1v4.1m0 4.08v4.1m0 4.08v4.1m0 4.08v4.1m0 4.08v4.1m0 4.08v4.1m0 4.1v4.08m0 4.1v2.03" stroke="#000" fill="none"/><path d="M2951.94 1016.35h-.95v-.52h.94zM2951.94 1106.83h-.95v-.5h.94z" stroke="#000" stroke-width=".05"/><defs><path d="M212-179c-10-28-35-45-73-45-59 0-87 40-87 99 0 60 29 101 89 101 43 0 62-24 78-52l27 14C228-24 195 4 139 4 59 4 22-46 18-125c-6-104 99-153 187-111 19 9 31 26 39 46" id="E"/><path d="M100-194c62-1 85 37 85 99 1 63-27 99-86 99S16-35 15-95c0-66 28-99 85-99zM99-20c44 1 53-31 53-75 0-43-8-75-51-75s-53 32-53 75 10 74 51 75" id="F"/><path d="M210-169c-67 3-38 105-44 169h-31v-121c0-29-5-50-35-48C34-165 62-65 56 0H25l-1-190h30c1 10-1 24 2 32 10-44 99-50 107 0 11-21 27-35 58-36 85-2 47 119 55 194h-31v-121c0-29-5-49-35-48" id="G"/><path d="M115-194c55 1 70 41 70 98S169 2 115 4C84 4 66-9 55-30l1 105H24l-1-265h31l2 30c10-21 28-34 59-34zm-8 174c40 0 45-34 45-75s-6-73-45-74c-42 0-51 32-51 76 0 43 10 73 51 73" id="H"/><path d="M84 4C-5 8 30-112 23-190h32v120c0 31 7 50 39 49 72-2 45-101 50-169h31l1 190h-30c-1-10 1-25-2-33-11 22-28 36-60 37" id="I"/><path d="M59-47c-2 24 18 29 38 22v24C64 9 27 4 27-40v-127H5v-23h24l9-43h21v43h35v23H59v120" id="J"/><path d="M100-194c63 0 86 42 84 106H49c0 40 14 67 53 68 26 1 43-12 49-29l28 8c-11 28-37 45-77 45C44 4 14-33 15-96c1-61 26-98 85-98zm52 81c6-60-76-77-97-28-3 7-6 17-6 28h103" id="K"/><g id="a"><use transform="matrix(0.07222222222222222,0,0,0.07222222222222222,0,0)" xlink:href="#E"/><use transform="matrix(0.07222222222222222,0,0,0.07222222222222222,18.705555555555552,0)" xlink:href="#F"/><use transform="matrix(0.07222222222222222,0,0,0.07222222222222222,33.14999999999999,0)" xlink:href="#G"/><use transform="matrix(0.07222222222222222,0,0,0.07222222222222222,54.74444444444443,0)" xlink:href="#H"/><use transform="matrix(0.07222222222222222,0,0,0.07222222222222222,69.18888888888887,0)" xlink:href="#I"/><use transform="matrix(0.07222222222222222,0,0,0.07222222222222222,83.63333333333331,0)" xlink:href="#J"/><use transform="matrix(0.07222222222222222,0,0,0.07222222222222222,90.85555555555553,0)" xlink:href="#K"/></g><path d="M190 0L58-211 59 0H30v-248h39L202-35l-2-213h31V0h-41" id="L"/><path d="M85-194c31 0 48 13 60 33l-1-100h32l1 261h-30c-2-10 0-23-3-31C134-8 116 4 85 4 32 4 16-35 15-94c0-66 23-100 70-100zm9 24c-40 0-46 34-46 75 0 40 6 74 45 74 42 0 51-32 51-76 0-42-9-74-50-73" id="M"/><g id="b"><use transform="matrix(0.07222222222222222,0,0,0.07222222222222222,0,0)" xlink:href="#L"/><use transform="matrix(0.07222222222222222,0,0,0.07222222222222222,18.705555555555552,0)" xlink:href="#F"/><use transform="matrix(0.07222222222222222,0,0,0.07222222222222222,33.14999999999999,0)" xlink:href="#M"/><use transform="matrix(0.07222222222222222,0,0,0.07222222222222222,47.594444444444434,0)" xlink:href="#K"/></g><path d="M233-177c-1 41-23 64-60 70L243 0h-38l-65-103H63V0H30v-248c88 3 205-21 203 71zM63-129c60-2 137 13 137-47 0-61-80-42-137-45v92" id="N"/><path d="M63-220v92h138v28H63V0H30v-248h175v28H63" id="O"/><g id="c"><use transform="matrix(0.07222222222222222,0,0,0.07222222222222222,0,0)" xlink:href="#N"/><use transform="matrix(0.07222222222222222,0,0,0.07222222222222222,18.705555555555552,0)" xlink:href="#O"/><use transform="matrix(0.07222222222222222,0,0,0.07222222222222222,34.52222222222222,0)" xlink:href="#L"/><use transform="matrix(0.07222222222222222,0,0,0.07222222222222222,53.227777777777774,0)" xlink:href="#F"/><use transform="matrix(0.07222222222222222,0,0,0.07222222222222222,67.67222222222222,0)" xlink:href="#E"/></g><path d="M115-194c53 0 69 39 70 98 0 66-23 100-70 100C84 3 66-7 56-30L54 0H23l1-261h32v101c10-23 28-34 59-34zm-8 174c40 0 45-34 45-75 0-40-5-75-45-74-42 0-51 32-51 76 0 43 10 73 51 73" id="P"/><path d="M24 0v-261h32V0H24" id="Q"/><path d="M96-169c-40 0-48 33-48 73s9 75 48 75c24 0 41-14 43-38l32 2c-6 37-31 61-74 61-59 0-76-41-82-99-10-93 101-131 147-64 4 7 5 14 7 22l-32 3c-4-21-16-35-41-35" id="R"/><path d="M143 0L79-87 56-68V0H24v-261h32v163l83-92h37l-77 82L181 0h-38" id="S"/><g id="d"><use transform="matrix(0.07222222222222222,0,0,0.07222222222222222,0,0)" xlink:href="#P"/><use transform="matrix(0.07222222222222222,0,0,0.07222222222222222,14.444444444444443,0)" xlink:href="#Q"/><use transform="matrix(0.07222222222222222,0,0,0.07222222222222222,20.15,0)" xlink:href="#F"/><use transform="matrix(0.07222222222222222,0,0,0.07222222222222222,34.59444444444444,0)" xlink:href="#R"/><use transform="matrix(0.07222222222222222,0,0,0.07222222222222222,47.59444444444444,0)" xlink:href="#S"/></g><path d="M205 0l-28-72H64L36 0H1l101-248h38L239 0h-34zm-38-99l-47-123c-12 45-31 82-46 123h93" id="T"/><path d="M114-163C36-179 61-72 57 0H25l-1-190h30c1 12-1 29 2 39 6-27 23-49 58-41v29" id="U"/><path d="M141-36C126-15 110 5 73 4 37 3 15-17 15-53c-1-64 63-63 125-63 3-35-9-54-41-54-24 1-41 7-42 31l-33-3c5-37 33-52 76-52 45 0 72 20 72 64v82c-1 20 7 32 28 27v20c-31 9-61-2-59-35zM48-53c0 20 12 33 32 33 41-3 63-29 60-74-43 2-92-5-92 41" id="V"/><g id="e"><use transform="matrix(0.07222222222222222,0,0,0.07222222222222222,0,0)" xlink:href="#T"/><use transform="matrix(0.07222222222222222,0,0,0.07222222222222222,17.333333333333332,0)" xlink:href="#I"/><use transform="matrix(0.07222222222222222,0,0,0.07222222222222222,31.777777777777775,0)" xlink:href="#U"/><use transform="matrix(0.07222222222222222,0,0,0.07222222222222222,40.37222222222222,0)" xlink:href="#F"/><use transform="matrix(0.07222222222222222,0,0,0.07222222222222222,54.81666666666666,0)" xlink:href="#U"/><use transform="matrix(0.07222222222222222,0,0,0.07222222222222222,63.411111111111104,0)" xlink:href="#V"/></g><g id="f"><use transform="matrix(0.07222222222222222,0,0,0.07222222222222222,0,0)" xlink:href="#T"/><use transform="matrix(0.07222222222222222,0,0,0.07222222222222222,17.333333333333332,0)" xlink:href="#I"/><use transform="matrix(0.07222222222222222,0,0,0.07222222222222222,31.777777777777775,0)" xlink:href="#U"/><use transform="matrix(0.07222222222222222,0,0,0.07222222222222222,40.37222222222222,0)" xlink:href="#F"/><use transform="matrix(0.07222222222222222,0,0,0.07222222222222222,54.81666666666666,0)" xlink:href="#U"/><use transform="matrix(0.07222222222222222,0,0,0.07222222222222222,63.411111111111104,0)" xlink:href="#V"/></g><path d="M33 0v-248h34V0H33" id="W"/><path d="M30-248c87 1 191-15 191 75 0 78-77 80-158 76V0H30v-248zm33 125c57 0 124 11 124-50 0-59-68-47-124-48v98" id="X"/><g id="g"><use transform="matrix(0.07222222222222222,0,0,0.07222222222222222,0,0)" xlink:href="#W"/><use transform="matrix(0.07222222222222222,0,0,0.07222222222222222,7.222222222222221,0)" xlink:href="#X"/></g><g id="h"><use transform="matrix(0.07222222222222222,0,0,0.07222222222222222,0,0)" xlink:href="#R"/><use transform="matrix(0.07222222222222222,0,0,0.07222222222222222,12.999999999999998,0)" xlink:href="#F"/><use transform="matrix(0.07222222222222222,0,0,0.07222222222222222,27.444444444444443,0)" xlink:href="#U"/><use transform="matrix(0.07222222222222222,0,0,0.07222222222222222,36.038888888888884,0)" xlink:href="#K"/></g><path fill="#333" d="M199 0l-22-63H83L61 0H9l90-248h61L250 0h-51zm-33-102l-36-108c-10 38-24 72-36 108h72" id="Y"/><path fill="#333" d="M85 4C-2 5 27-109 22-190h50c7 57-23 150 33 157 60-5 35-97 40-157h50l1 190h-47c-2-12 1-28-3-38-12 25-28 42-61 42" id="Z"/><path fill="#333" d="M135-150c-39-12-60 13-60 57V0H25l-1-190h47c2 13-1 29 3 40 6-28 27-53 61-41v41" id="aa"/><path fill="#333" d="M110-194c64 0 96 36 96 99 0 64-35 99-97 99-61 0-95-36-95-99 0-62 34-99 96-99zm-1 164c35 0 45-28 45-65 0-40-10-65-43-65-34 0-45 26-45 65 0 36 10 65 43 65" id="ab"/><path fill="#333" d="M133-34C117-15 103 5 69 4 32 3 11-16 11-54c-1-60 55-63 116-61 1-26-3-47-28-47-18 1-26 9-28 27l-52-2c7-38 36-58 82-57s74 22 75 68l1 82c-1 14 12 18 25 15v27c-30 8-71 5-69-32zm-48 3c29 0 43-24 42-57-32 0-66-3-65 30 0 17 8 27 23 27" id="ac"/><g id="i"><use transform="matrix(0.04938271604938272,0,0,0.04938271604938272,0,0)" xlink:href="#Y"/><use transform="matrix(0.04938271604938272,0,0,0.04938271604938272,12.790123456790125,0)" xlink:href="#Z"/><use transform="matrix(0.04938271604938272,0,0,0.04938271604938272,23.60493827160494,0)" xlink:href="#aa"/><use transform="matrix(0.04938271604938272,0,0,0.04938271604938272,30.518518518518523,0)" xlink:href="#ab"/><use transform="matrix(0.04938271604938272,0,0,0.04938271604938272,41.333333333333336,0)" xlink:href="#aa"/><use transform="matrix(0.04938271604938272,0,0,0.04938271604938272,48.24691358024692,0)" xlink:href="#ac"/></g><path fill="#333" d="M24 0v-248h52v208h133V0H24" id="ad"/><path fill="#333" d="M25-224v-37h50v37H25zM25 0v-190h50V0H25" id="ae"/><path fill="#333" d="M135-194c87-1 58 113 63 194h-50c-7-57 23-157-34-157-59 0-34 97-39 157H25l-1-190h47c2 12-1 28 3 38 12-26 28-41 61-42" id="af"/><path fill="#333" d="M147 0L96-86 75-71V0H25v-261h50v150l67-79h53l-66 74L201 0h-54" id="ag"/><g id="j"><use transform="matrix(0.04938271604938272,0,0,0.04938271604938272,0,0)" xlink:href="#ad"/><use transform="matrix(0.04938271604938272,0,0,0.04938271604938272,10.814814814814815,0)" xlink:href="#ae"/><use transform="matrix(0.04938271604938272,0,0,0.04938271604938272,15.753086419753087,0)" xlink:href="#af"/><use transform="matrix(0.04938271604938272,0,0,0.04938271604938272,26.567901234567902,0)" xlink:href="#ag"/></g><path d="M199 0l-22-63H83L61 0H9l90-248h61L250 0h-51zm-33-102l-36-108c-10 38-24 72-36 108h72" id="ah"/><path d="M85 4C-2 5 27-109 22-190h50c7 57-23 150 33 157 60-5 35-97 40-157h50l1 190h-47c-2-12 1-28-3-38-12 25-28 42-61 42" id="ai"/><path d="M135-150c-39-12-60 13-60 57V0H25l-1-190h47c2 13-1 29 3 40 6-28 27-53 61-41v41" id="aj"/><path d="M110-194c64 0 96 36 96 99 0 64-35 99-97 99-61 0-95-36-95-99 0-62 34-99 96-99zm-1 164c35 0 45-28 45-65 0-40-10-65-43-65-34 0-45 26-45 65 0 36 10 65 43 65" id="ak"/><path d="M133-34C117-15 103 5 69 4 32 3 11-16 11-54c-1-60 55-63 116-61 1-26-3-47-28-47-18 1-26 9-28 27l-52-2c7-38 36-58 82-57s74 22 75 68l1 82c-1 14 12 18 25 15v27c-30 8-71 5-69-32zm-48 3c29 0 43-24 42-57-32 0-66-3-65 30 0 17 8 27 23 27" id="al"/><g id="k"><use transform="matrix(0.04938271604938272,0,0,0.04938271604938272,0,0)" xlink:href="#ah"/><use transform="matrix(0.04938271604938272,0,0,0.04938271604938272,12.790123456790125,0)" xlink:href="#ai"/><use transform="matrix(0.04938271604938272,0,0,0.04938271604938272,23.60493827160494,0)" xlink:href="#aj"/><use transform="matrix(0.04938271604938272,0,0,0.04938271604938272,30.518518518518523,0)" xlink:href="#ak"/><use transform="matrix(0.04938271604938272,0,0,0.04938271604938272,41.333333333333336,0)" xlink:href="#aj"/><use transform="matrix(0.04938271604938272,0,0,0.04938271604938272,48.24691358024692,0)" xlink:href="#al"/></g><path d="M24 0v-248h52v208h133V0H24" id="am"/><path d="M25-224v-37h50v37H25zM25 0v-190h50V0H25" id="an"/><path d="M135-194c87-1 58 113 63 194h-50c-7-57 23-157-34-157-59 0-34 97-39 157H25l-1-190h47c2 12-1 28 3 38 12-26 28-41 61-42" id="ao"/><path d="M147 0L96-86 75-71V0H25v-261h50v150l67-79h53l-66 74L201 0h-54" id="ap"/><g id="l"><use transform="matrix(0.04938271604938272,0,0,0.04938271604938272,0,0)" xlink:href="#am"/><use transform="matrix(0.04938271604938272,0,0,0.04938271604938272,10.814814814814815,0)" xlink:href="#an"/><use transform="matrix(0.04938271604938272,0,0,0.04938271604938272,15.753086419753087,0)" xlink:href="#ao"/><use transform="matrix(0.04938271604938272,0,0,0.04938271604938272,26.567901234567902,0)" xlink:href="#ap"/></g><path fill="#fe7070" d="M30-248c118-7 216 8 213 122C240-48 200 0 122 0H30v-248zM63-27c89 8 146-16 146-99s-60-101-146-95v194" id="aq"/><path fill="#fe7070" d="M100-194c63 0 86 42 84 106H49c0 40 14 67 53 68 26 1 43-12 49-29l28 8c-11 28-37 45-77 45C44 4 14-33 15-96c1-61 26-98 85-98zm52 81c6-60-76-77-97-28-3 7-6 17-6 28h103" id="ar"/><path fill="#fe7070" d="M24 0v-261h32V0H24" id="as"/><path fill="#fe7070" d="M141-36C126-15 110 5 73 4 37 3 15-17 15-53c-1-64 63-63 125-63 3-35-9-54-41-54-24 1-41 7-42 31l-33-3c5-37 33-52 76-52 45 0 72 20 72 64v82c-1 20 7 32 28 27v20c-31 9-61-2-59-35zM48-53c0 20 12 33 32 33 41-3 63-29 60-74-43 2-92-5-92 41" id="at"/><path fill="#fe7070" d="M179-190L93 31C79 59 56 82 12 73V49c39 6 53-20 64-50L1-190h34L92-34l54-156h33" id="au"/><g id="m"><use transform="matrix(0.07222222222222222,0,0,0.07222222222222222,0,0)" xlink:href="#aq"/><use transform="matrix(0.07222222222222222,0,0,0.07222222222222222,18.705555555555552,0)" xlink:href="#ar"/><use transform="matrix(0.07222222222222222,0,0,0.07222222222222222,33.14999999999999,0)" xlink:href="#as"/><use transform="matrix(0.07222222222222222,0,0,0.07222222222222222,38.85555555555555,0)" xlink:href="#at"/><use transform="matrix(0.07222222222222222,0,0,0.07222222222222222,53.29999999999999,0)" xlink:href="#au"/></g><path fill="#fe7070" d="M212-179c-10-28-35-45-73-45-59 0-87 40-87 99 0 60 29 101 89 101 43 0 62-24 78-52l27 14C228-24 195 4 139 4 59 4 22-46 18-125c-6-104 99-153 187-111 19 9 31 26 39 46" id="av"/><path fill="#fe7070" d="M100-194c62-1 85 37 85 99 1 63-27 99-86 99S16-35 15-95c0-66 28-99 85-99zM99-20c44 1 53-31 53-75 0-43-8-75-51-75s-53 32-53 75 10 74 51 75" id="aw"/><path fill="#fe7070" d="M210-169c-67 3-38 105-44 169h-31v-121c0-29-5-50-35-48C34-165 62-65 56 0H25l-1-190h30c1 10-1 24 2 32 10-44 99-50 107 0 11-21 27-35 58-36 85-2 47 119 55 194h-31v-121c0-29-5-49-35-48" id="ax"/><path fill="#fe7070" d="M115-194c55 1 70 41 70 98S169 2 115 4C84 4 66-9 55-30l1 105H24l-1-265h31l2 30c10-21 28-34 59-34zm-8 174c40 0 45-34 45-75s-6-73-45-74c-42 0-51 32-51 76 0 43 10 73 51 73" id="ay"/><path fill="#fe7070" d="M117-194c89-4 53 116 60 194h-32v-121c0-31-8-49-39-48C34-167 62-67 57 0H25l-1-190h30c1 10-1 24 2 32 11-22 29-35 61-36" id="az"/><path fill="#fe7070" d="M135-143c-3-34-86-38-87 0 15 53 115 12 119 90S17 21 10-45l28-5c4 36 97 45 98 0-10-56-113-15-118-90-4-57 82-63 122-42 12 7 21 19 24 35" id="aA"/><path fill="#fe7070" d="M59-47c-2 24 18 29 38 22v24C64 9 27 4 27-40v-127H5v-23h24l9-43h21v43h35v23H59v120" id="aB"/><path fill="#fe7070" d="M24-231v-30h32v30H24zM24 0v-190h32V0H24" id="aC"/><g id="n"><use transform="matrix(0.07222222222222222,0,0,0.07222222222222222,0,0)" xlink:href="#av"/><use transform="matrix(0.07222222222222222,0,0,0.07222222222222222,18.705555555555552,0)" xlink:href="#aw"/><use transform="matrix(0.07222222222222222,0,0,0.07222222222222222,33.14999999999999,0)" xlink:href="#ax"/><use transform="matrix(0.07222222222222222,0,0,0.07222222222222222,54.74444444444443,0)" xlink:href="#ay"/><use transform="matrix(0.07222222222222222,0,0,0.07222222222222222,69.18888888888887,0)" xlink:href="#ar"/><use transform="matrix(0.07222222222222222,0,0,0.07222222222222222,83.63333333333331,0)" xlink:href="#az"/><use transform="matrix(0.07222222222222222,0,0,0.07222222222222222,98.07777777777775,0)" xlink:href="#aA"/><use transform="matrix(0.07222222222222222,0,0,0.07222222222222222,111.07777777777775,0)" xlink:href="#at"/><use transform="matrix(0.07222222222222222,0,0,0.07222222222222222,125.5222222222222,0)" xlink:href="#aB"/><use transform="matrix(0.07222222222222222,0,0,0.07222222222222222,132.7444444444444,0)" xlink:href="#aC"/><use transform="matrix(0.07222222222222222,0,0,0.07222222222222222,138.44999999999996,0)" xlink:href="#aw"/><use transform="matrix(0.07222222222222222,0,0,0.07222222222222222,152.8944444444444,0)" xlink:href="#az"/></g><path fill="#1071e5" d="M160-131c35 5 61 23 61 61C221 17 115-2 30 0v-248c76 3 177-17 177 60 0 33-19 50-47 57zm-97-11c50-1 110 9 110-42 0-47-63-36-110-37v79zm0 115c55-2 124 14 124-45 0-56-70-42-124-44v89" id="aD"/><path fill="#1071e5" d="M84 4C-5 8 30-112 23-190h32v120c0 31 7 50 39 49 72-2 45-101 50-169h31l1 190h-30c-1-10 1-25-2-33-11 22-28 36-60 37" id="aE"/><path fill="#1071e5" d="M101-234c-31-9-42 10-38 44h38v23H63V0H32v-167H5v-23h27c-7-52 17-82 69-68v24" id="aF"/><path fill="#1071e5" d="M100-194c63 0 86 42 84 106H49c0 40 14 67 53 68 26 1 43-12 49-29l28 8c-11 28-37 45-77 45C44 4 14-33 15-96c1-61 26-98 85-98zm52 81c6-60-76-77-97-28-3 7-6 17-6 28h103" id="aG"/><path fill="#1071e5" d="M114-163C36-179 61-72 57 0H25l-1-190h30c1 12-1 29 2 39 6-27 23-49 58-41v29" id="aH"/><g id="o"><use transform="matrix(0.07222222222222222,0,0,0.07222222222222222,0,0)" xlink:href="#aD"/><use transform="matrix(0.07222222222222222,0,0,0.07222222222222222,17.333333333333332,0)" xlink:href="#aE"/><use transform="matrix(0.07222222222222222,0,0,0.07222222222222222,31.777777777777775,0)" xlink:href="#aF"/><use transform="matrix(0.07222222222222222,0,0,0.07222222222222222,38.49444444444444,0)" xlink:href="#aF"/><use transform="matrix(0.07222222222222222,0,0,0.07222222222222222,45.71666666666666,0)" xlink:href="#aG"/><use transform="matrix(0.07222222222222222,0,0,0.07222222222222222,60.161111111111104,0)" xlink:href="#aH"/></g><path fill="#1071e5" d="M63-220v92h138v28H63V0H30v-248h175v28H63" id="aI"/><path fill="#1071e5" d="M24-231v-30h32v30H24zM24 0v-190h32V0H24" id="aJ"/><path fill="#1071e5" d="M24 0v-261h32V0H24" id="aK"/><g id="p"><use transform="matrix(0.07222222222222222,0,0,0.07222222222222222,0,0)" xlink:href="#aI"/><use transform="matrix(0.07222222222222222,0,0,0.07222222222222222,15.816666666666665,0)" xlink:href="#aJ"/><use transform="matrix(0.07222222222222222,0,0,0.07222222222222222,21.52222222222222,0)" xlink:href="#aK"/><use transform="matrix(0.07222222222222222,0,0,0.07222222222222222,27.227777777777774,0)" xlink:href="#aK"/></g><path fill="#1071e5" d="M135-143c-3-34-86-38-87 0 15 53 115 12 119 90S17 21 10-45l28-5c4 36 97 45 98 0-10-56-113-15-118-90-4-57 82-63 122-42 12 7 21 19 24 35" id="aL"/><path fill="#1071e5" d="M59-47c-2 24 18 29 38 22v24C64 9 27 4 27-40v-127H5v-23h24l9-43h21v43h35v23H59v120" id="aM"/><path fill="#1071e5" d="M141-36C126-15 110 5 73 4 37 3 15-17 15-53c-1-64 63-63 125-63 3-35-9-54-41-54-24 1-41 7-42 31l-33-3c5-37 33-52 76-52 45 0 72 20 72 64v82c-1 20 7 32 28 27v20c-31 9-61-2-59-35zM48-53c0 20 12 33 32 33 41-3 63-29 60-74-43 2-92-5-92 41" id="aN"/><g id="q"><use transform="matrix(0.07222222222222222,0,0,0.07222222222222222,0,0)" xlink:href="#aL"/><use transform="matrix(0.07222222222222222,0,0,0.07222222222222222,12.999999999999998,0)" xlink:href="#aM"/><use transform="matrix(0.07222222222222222,0,0,0.07222222222222222,20.22222222222222,0)" xlink:href="#aN"/><use transform="matrix(0.07222222222222222,0,0,0.07222222222222222,34.666666666666664,0)" xlink:href="#aM"/><use transform="matrix(0.07222222222222222,0,0,0.07222222222222222,41.888888888888886,0)" xlink:href="#aG"/></g><path d="M206 0h-36l-40-164L89 0H53L-1-190h32L70-26l43-164h34l41 164 42-164h31" id="aO"/><g id="r"><use transform="matrix(0.07222222222222222,0,0,0.07222222222222222,0,0)" xlink:href="#O"/><use transform="matrix(0.07222222222222222,0,0,0.07222222222222222,15.816666666666665,0)" xlink:href="#Q"/><use transform="matrix(0.07222222222222222,0,0,0.07222222222222222,21.52222222222222,0)" xlink:href="#F"/><use transform="matrix(0.07222222222222222,0,0,0.07222222222222222,35.96666666666666,0)" xlink:href="#aO"/></g><path d="M117-194c89-4 53 116 60 194h-32v-121c0-31-8-49-39-48C34-167 62-67 57 0H25l-1-190h30c1 10-1 24 2 32 11-22 29-35 61-36" id="aP"/><g id="s"><use transform="matrix(0.07222222222222222,0,0,0.07222222222222222,0,0)" xlink:href="#E"/><use transform="matrix(0.07222222222222222,0,0,0.07222222222222222,18.705555555555552,0)" xlink:href="#F"/><use transform="matrix(0.07222222222222222,0,0,0.07222222222222222,33.14999999999999,0)" xlink:href="#aP"/><use transform="matrix(0.07222222222222222,0,0,0.07222222222222222,47.594444444444434,0)" xlink:href="#J"/><use transform="matrix(0.07222222222222222,0,0,0.07222222222222222,54.816666666666656,0)" xlink:href="#U"/><use transform="matrix(0.07222222222222222,0,0,0.07222222222222222,63.4111111111111,0)" xlink:href="#F"/><use transform="matrix(0.07222222222222222,0,0,0.07222222222222222,77.85555555555555,0)" xlink:href="#Q"/></g><path d="M160-131c35 5 61 23 61 61C221 17 115-2 30 0v-248c76 3 177-17 177 60 0 33-19 50-47 57zm-97-11c50-1 110 9 110-42 0-47-63-36-110-37v79zm0 115c55-2 124 14 124-45 0-56-70-42-124-44v89" id="aQ"/><path d="M101-234c-31-9-42 10-38 44h38v23H63V0H32v-167H5v-23h27c-7-52 17-82 69-68v24" id="aR"/><g id="t"><use transform="matrix(0.07222222222222222,0,0,0.07222222222222222,0,0)" xlink:href="#aQ"/><use transform="matrix(0.07222222222222222,0,0,0.07222222222222222,17.333333333333332,0)" xlink:href="#I"/><use transform="matrix(0.07222222222222222,0,0,0.07222222222222222,31.777777777777775,0)" xlink:href="#aR"/><use transform="matrix(0.07222222222222222,0,0,0.07222222222222222,38.49444444444444,0)" xlink:href="#aR"/><use transform="matrix(0.07222222222222222,0,0,0.07222222222222222,45.71666666666666,0)" xlink:href="#K"/><use transform="matrix(0.07222222222222222,0,0,0.07222222222222222,60.161111111111104,0)" xlink:href="#U"/></g><path d="M185-189c-5-48-123-54-124 2 14 75 158 14 163 119 3 78-121 87-175 55-17-10-28-26-33-46l33-7c5 56 141 63 141-1 0-78-155-14-162-118-5-82 145-84 179-34 5 7 8 16 11 25" id="aS"/><g id="u"><use transform="matrix(0.07222222222222222,0,0,0.07222222222222222,0,0)" xlink:href="#aS"/><use transform="matrix(0.07222222222222222,0,0,0.07222222222222222,17.333333333333332,0)" xlink:href="#J"/><use transform="matrix(0.07222222222222222,0,0,0.07222222222222222,24.555555555555554,0)" xlink:href="#F"/><use transform="matrix(0.07222222222222222,0,0,0.07222222222222222,38.99999999999999,0)" xlink:href="#H"/></g><path d="M127-220V0H93v-220H8v-28h204v28h-85" id="aT"/><path d="M106-169C34-169 62-67 57 0H25v-261h32l-1 103c12-21 28-36 61-36 89 0 53 116 60 194h-32v-121c2-32-8-49-39-48" id="aU"/><path d="M135-143c-3-34-86-38-87 0 15 53 115 12 119 90S17 21 10-45l28-5c4 36 97 45 98 0-10-56-113-15-118-90-4-57 82-63 122-42 12 7 21 19 24 35" id="aV"/><g id="v"><use transform="matrix(0.07222222222222222,0,0,0.07222222222222222,0,0)" xlink:href="#aT"/><use transform="matrix(0.07222222222222222,0,0,0.07222222222222222,15.816666666666665,0)" xlink:href="#aU"/><use transform="matrix(0.07222222222222222,0,0,0.07222222222222222,30.261111111111106,0)" xlink:href="#U"/><use transform="matrix(0.07222222222222222,0,0,0.07222222222222222,38.85555555555555,0)" xlink:href="#K"/><use transform="matrix(0.07222222222222222,0,0,0.07222222222222222,53.29999999999999,0)" xlink:href="#aV"/><use transform="matrix(0.07222222222222222,0,0,0.07222222222222222,66.29999999999998,0)" xlink:href="#aU"/><use transform="matrix(0.07222222222222222,0,0,0.07222222222222222,80.74444444444443,0)" xlink:href="#F"/><use transform="matrix(0.07222222222222222,0,0,0.07222222222222222,95.18888888888887,0)" xlink:href="#Q"/><use transform="matrix(0.07222222222222222,0,0,0.07222222222222222,100.89444444444442,0)" xlink:href="#M"/></g><g id="w"><use transform="matrix(0.07222222222222222,0,0,0.07222222222222222,0,0)" xlink:href="#N"/><use transform="matrix(0.07222222222222222,0,0,0.07222222222222222,18.705555555555552,0)" xlink:href="#K"/><use transform="matrix(0.07222222222222222,0,0,0.07222222222222222,33.14999999999999,0)" xlink:href="#aV"/><use transform="matrix(0.07222222222222222,0,0,0.07222222222222222,46.149999999999984,0)" xlink:href="#I"/><use transform="matrix(0.07222222222222222,0,0,0.07222222222222222,60.59444444444443,0)" xlink:href="#G"/><use transform="matrix(0.07222222222222222,0,0,0.07222222222222222,82.18888888888887,0)" xlink:href="#K"/></g><path d="M195 0l-74-108L45 0H8l94-129-87-119h37l69 98 67-98h37l-84 118L233 0h-38" id="aW"/><g id="x"><use transform="matrix(0.07222222222222222,0,0,0.07222222222222222,0,0)" xlink:href="#N"/><use transform="matrix(0.07222222222222222,0,0,0.07222222222222222,18.705555555555552,0)" xlink:href="#aW"/></g><g id="y"><use transform="matrix(0.07222222222222222,0,0,0.07222222222222222,0,0)" xlink:href="#aT"/><use transform="matrix(0.07222222222222222,0,0,0.07222222222222222,15.816666666666665,0)" xlink:href="#aW"/></g><g id="z"><use transform="matrix(0.07222222222222222,0,0,0.07222222222222222,0,0)" xlink:href="#L"/><use transform="matrix(0.07222222222222222,0,0,0.07222222222222222,18.705555555555552,0)" xlink:href="#O"/><use transform="matrix(0.07222222222222222,0,0,0.07222222222222222,34.52222222222222,0)" xlink:href="#E"/></g><path d="M30-248c118-7 216 8 213 122C240-48 200 0 122 0H30v-248zM63-27c89 8 146-16 146-99s-60-101-146-95v194" id="aX"/><g id="A"><use transform="matrix(0.07222222222222222,0,0,0.07222222222222222,0,0)" xlink:href="#aX"/><use transform="matrix(0.07222222222222222,0,0,0.07222222222222222,18.705555555555552,0)" xlink:href="#V"/><use transform="matrix(0.07222222222222222,0,0,0.07222222222222222,33.14999999999999,0)" xlink:href="#J"/><use transform="matrix(0.07222222222222222,0,0,0.07222222222222222,40.37222222222221,0)" xlink:href="#V"/></g><path fill="#333" d="M169-182c-1-43-94-46-97-3 18 66 151 10 154 114 3 95-165 93-204 36-6-8-10-19-12-30l50-8c3 46 112 56 116 5-17-69-150-10-154-114-4-87 153-88 188-35 5 8 8 18 10 28" id="aY"/><path fill="#333" d="M185-48c-13 30-37 53-82 52C43 2 14-33 14-96s30-98 90-98c62 0 83 45 84 108H66c0 31 8 55 39 56 18 0 30-7 34-22zm-45-69c5-46-57-63-70-21-2 6-4 13-4 21h74" id="aZ"/><path fill="#333" d="M88-194c31-1 46 15 58 34l-1-101h50l1 261h-48c-2-10 0-23-3-31C134-8 116 4 84 4 32 4 16-41 15-95c0-56 19-97 73-99zm17 164c33 0 40-30 41-66 1-37-9-64-41-64s-38 30-39 65c0 43 13 65 39 65" id="ba"/><g id="B"><use transform="matrix(0.04938271604938272,0,0,0.04938271604938272,0,0)" xlink:href="#aY"/><use transform="matrix(0.04938271604938272,0,0,0.04938271604938272,11.851851851851853,0)" xlink:href="#aZ"/><use transform="matrix(0.04938271604938272,0,0,0.04938271604938272,21.7283950617284,0)" xlink:href="#af"/><use transform="matrix(0.04938271604938272,0,0,0.04938271604938272,32.543209876543216,0)" xlink:href="#ba"/></g><path fill="#333" d="M175 0L67-191c6 58 2 128 3 191H24v-248h59L193-55c-6-58-2-129-3-193h46V0h-61" id="bb"/><path fill="#333" d="M76-208v77h127v40H76V0H24v-248h183v40H76" id="bc"/><path fill="#333" d="M67-125c0 53 21 87 73 88 37 1 54-22 65-47l45 17C233-25 199 4 140 4 58 4 20-42 15-125 8-235 124-281 211-232c18 10 29 29 36 50l-46 12c-8-25-30-41-62-41-52 0-71 34-72 86" id="bd"/><g id="C"><use transform="matrix(0.04938271604938272,0,0,0.04938271604938272,0,0)" xlink:href="#bb"/><use transform="matrix(0.04938271604938272,0,0,0.04938271604938272,12.790123456790125,0)" xlink:href="#bc"/><use transform="matrix(0.04938271604938272,0,0,0.04938271604938272,23.60493827160494,0)" xlink:href="#bd"/></g><path fill="#333" d="M230 0l2-204L168 0h-37L68-204 70 0H24v-248h70l56 185 57-185h69V0h-46" id="be"/><path fill="#333" d="M137-138c1-29-70-34-71-4 15 46 118 7 119 86 1 83-164 76-172 9l43-7c4 19 20 25 44 25 33 8 57-30 24-41C81-84 22-81 20-136c-2-80 154-74 161-7" id="bf"/><path fill="#333" d="M195-6C206 82 75 100 31 46c-4-6-6-13-8-21l49-6c3 16 16 24 34 25 40 0 42-37 40-79-11 22-30 35-61 35-53 0-70-43-70-97 0-56 18-96 73-97 30 0 46 14 59 34l2-30h47zm-90-29c32 0 41-27 41-63 0-35-9-62-40-62-32 0-39 29-40 63 0 36 9 62 39 62" id="bg"/><g id="D"><use transform="matrix(0.04938271604938272,0,0,0.04938271604938272,0,0)" xlink:href="#be"/><use transform="matrix(0.04938271604938272,0,0,0.04938271604938272,14.765432098765434,0)" xlink:href="#aZ"/><use transform="matrix(0.04938271604938272,0,0,0.04938271604938272,24.641975308641978,0)" xlink:href="#bf"/><use transform="matrix(0.04938271604938272,0,0,0.04938271604938272,34.51851851851852,0)" xlink:href="#bf"/><use transform="matrix(0.04938271604938272,0,0,0.04938271604938272,44.39506172839506,0)" xlink:href="#ac"/><use transform="matrix(0.04938271604938272,0,0,0.04938271604938272,54.27160493827161,0)" xlink:href="#bg"/><use transform="matrix(0.04938271604938272,0,0,0.04938271604938272,65.08641975308642,0)" xlink:href="#aZ"/></g></defs></g></svg>