<svg xmlns="http://www.w3.org/2000/svg" xmlns:xlink="http://www.w3.org/1999/xlink" xmlns:lucid="lucid" width="3001" height="1921"><g transform="translate(124 -175)" lucid:page-tab-id="Rd9Zk-aM7yCI"><path d="M-500 0h3500v3500H-500z" fill="#f2f3f5"/><path d="M2581.15 911.54a6 6 0 0 1 6-6h229.33a6 6 0 0 1 6 6v98.7a6 6 0 0 1-6 6h-229.33a6 6 0 0 1-6-6zM273 1698.94a6 6 0 0 1 6-6h692.05a6 6 0 0 1 6 6v325.5a6 6 0 0 1-6 6H279a6 6 0 0 1-6-6zM-68.14 946.08a6 6 0 0 1 6-6H43.82a6 6 0 0 1 6 6v53.32a6 6 0 0 1-6 6H-62.13a6 6 0 0 1-6-6z" stroke="#3a414a" stroke-width="3" fill="#fff"/><path d="M240 246a6 6 0 0 1 6-6h2108a6 6 0 0 1 6 6v1388a6 6 0 0 1-6 6H246a6 6 0 0 1-6-6z" stroke="#3a414a" stroke-width="6" fill="#edf5ff"/><path d="M1000 1006a6 6 0 0 1 6-6h948a6 6 0 0 1 6 6v548a6 6 0 0 1-6 6h-948a6 6 0 0 1-6-6zM999.16 406a6 6 0 0 1 6-6H1954a6 6 0 0 1 6 6v548a6 6 0 0 1-6 6h-948.84a6 6 0 0 1-6-6z" stroke="#3a414a" stroke-width="3" fill="#cfe4ff"/><g fill="none"><path d="M1358.34 281.5v1397"/><path d="M1358.34 281.5v6.02m0 12.04v12.05m0 12.05v12.04m0 12.04v12.04m0 12.04v12.05m0 12.04v12.05m0 12.05v12.04m0 12.04v12.04m0 12.05v12.04m0 12.05v12.05m0 12.04v12.04m0 12.05v12.04m0 12.04v12.06m0 12.04v12.04m0 12.05v12.03m0 12.04v12.04m0 12.06v12.04m0 12.04V697m0 12.03v12.04m0 12.05v12.04m0 12.04v12.05m0 12.04v12.03m0 12.04v12.05m0 12.04v12.04m0 12.05v12.04m0 12.03v12.05m0 12.04v12.04m0 12.05v12.05m0 12.04v12.04m0 12.04v12.04m0 12.04v12.05m0 12.05v12.04m0 12.04v12.04m0 12.04v12.05m0 12.04v12.05m0 12.05v12.04m0 12.04v12.04m0 12.05v12.04m0 12.05v12.05m0 12.04v12.04m0 12.05v12.04m0 12.04v12.06m0 12.04v12.04m0 12.05v12.03m0 12.04v12.04m0 12.06v12.04m0 12.04v12.05m0 12.03v12.04m0 12.05v12.04m0 12.04v12.05m0 12.04v12.03m0 12.04v12.05m0 12.04V1540m0 12.05v12.04m0 12.03v12.05m0 12.04v12.04m0 12.05v12.05m0 12.04v12.04m0 12.04v6.02" stroke="#e81313" stroke-width="3" stroke-linecap="round"/></g><path d="M240 246a6 6 0 0 1 6-6h308a6 6 0 0 1 6 6v28a6 6 0 0 1-6 6H246a6 6 0 0 1-6-6z" stroke="#3a414a" stroke-width="6" fill="#fff"/><use xlink:href="#a" transform="matrix(1,0,0,1,245,245) translate(26.08333333333337 22.675)"/><use xlink:href="#b" transform="matrix(1,0,0,1,245,245) translate(118.31111111111113 22.675)"/><use xlink:href="#c" transform="matrix(1,0,0,1,245,245) translate(213.28333333333333 22.675)"/><path d="M320 606a6 6 0 0 1 6-6h308a6 6 0 0 1 6 6v748a6 6 0 0 1-6 6H326a6 6 0 0 1-6-6z" stroke="#3a414a" stroke-width="6" fill="#fcce14"/><use xlink:href="#d" transform="matrix(1,0,0,1,325,605) translate(25.469444444444463 384.08125)"/><use xlink:href="#e" transform="matrix(1,0,0,1,325,605) translate(101.95277777777778 384.08125)"/><use xlink:href="#f" transform="matrix(1,0,0,1,325,605) translate(194.18055555555554 384.08125)"/><use xlink:href="#g" transform="matrix(1,0,0,1,325,605) translate(225.45277777777775 384.08125)"/><path d="M2040 406a6 6 0 0 1 6-6h188a6 6 0 0 1 6 6v1148a6 6 0 0 1-6 6h-188a6 6 0 0 1-6-6z" stroke="#3a414a" stroke-width="3" fill="#cfe4ff"/><use xlink:href="#h" transform="matrix(1,0,0,1,2045,405) translate(36.64444444444446 577.83125)"/><use xlink:href="#i" transform="matrix(1,0,0,1,2045,405) translate(95.72222222222223 577.83125)"/><path d="M1001.5 1006a6 6 0 0 1 6-6h268a6 6 0 0 1 6 6v31.5a6 6 0 0 1-6 6h-268a6 6 0 0 1-6-6z" stroke="#3a414a" stroke-width="3" fill="#fff"/><use xlink:href="#j" transform="matrix(1,0,0,1,1006.4999913234285,1005) translate(62.627777777777794 22.925)"/><use xlink:href="#k" transform="matrix(1,0,0,1,1006.4999913234285,1005) translate(103.00000000000001 22.925)"/><path d="M999.16 406a6 6 0 0 1 6-6h268a6 6 0 0 1 6 6v28a6 6 0 0 1-6 6h-268a6 6 0 0 1-6-6z" stroke="#3a414a" stroke-width="3" fill="#fff"/><use xlink:href="#l" transform="matrix(1,0,0,1,1004.1640062583742,405) translate(60.68333333333335 22.675)"/><use xlink:href="#k" transform="matrix(1,0,0,1,1004.1640062583742,405) translate(103.94444444444446 22.675)"/><path d="M770 1120a6 6 0 0 1 6-6h148a6 6 0 0 1 6 6v354a6 6 0 0 1-6 6H776a6 6 0 0 1-6-6z" stroke="#3a414a" stroke-width="3" fill="#fff"/><use xlink:href="#m" transform="matrix(1,0,0,1,775,1119) translate(2.27222222222224 154.3)"/><use xlink:href="#n" transform="matrix(1,0,0,1,775,1119) translate(64.16666666666669 154.3)"/><use xlink:href="#o" transform="matrix(1,0,0,1,775,1119) translate(38.99722222222223 185.5)"/><use xlink:href="#p" transform="matrix(1,0,0,1,775,1119) translate(53.44166666666667 185.5)"/><use xlink:href="#q" transform="matrix(1,0,0,1,775,1119) translate(20.18333333333335 216.7)"/><path d="M1040 1086a6 6 0 0 1 6-6h148a6 6 0 0 1 6 6v426.9a6 6 0 0 1-6 6h-148a6 6 0 0 1-6-6z" stroke="#3a414a" stroke-width="3" fill="#fff"/><use xlink:href="#r" transform="matrix(1,0,0,1,1045,1085) translate(26.683333333333344 201.784375)"/><use xlink:href="#s" transform="matrix(1,0,0,1,1045,1085) translate(33.905555555555566 232.984375)"/><path d="M1040 486a6 6 0 0 1 6-6h148a6 6 0 0 1 6 6v428a6 6 0 0 1-6 6h-148a6 6 0 0 1-6-6z" stroke="#3a414a" stroke-width="3" fill="#fff"/><use xlink:href="#t" transform="matrix(1,0,0,1,1045,485) translate(26.683333333333344 202.20625)"/><use xlink:href="#u" transform="matrix(1,0,0,1,1045,485) translate(50.480555555555554 233.40625)"/><path d="M1704.77 520h333.73" stroke="#d916a8" stroke-width="3" stroke-linejoin="round" fill="none"/><path d="M1684.5 520l18.77-10.83v21.66z" stroke="#d916a8" stroke-width="3" fill="#d916a8"/><path d="M2038.46 520h1.54" stroke="#d916a8" stroke-width="3" fill="none"/><path d="M1479.02 520.15l34.98-.13" stroke="#d916a8" stroke-width="9" stroke-linejoin="round" fill="none"/><path d="M1461.53 520.22l12.96-7.55.05 15z" stroke="#d916a8" stroke-width="9" fill="#d916a8"/><path d="M1518.5 524.48h-4.6l-.03-8.94h4.63z" stroke="#d916a8" stroke-width=".05" fill="#d916a8"/><path d="M1520 486a6 6 0 0 1 6-6h148a6 6 0 0 1 6 6v68a6 6 0 0 1-6 6h-148a6 6 0 0 1-6-6z" stroke="#3a414a" stroke-width="3" fill="#fff"/><use xlink:href="#v" transform="matrix(1,0,0,1,1525,485) translate(37.588888888888896 25.175)"/><use xlink:href="#w" transform="matrix(1,0,0,1,1525,485) translate(35.35000000000001 56.375)"/><path d="M1277.66 486.5a6 6 0 0 1 6-6h161.37a6 6 0 0 1 6 6V554a6 6 0 0 1-6 6h-161.37a6 6 0 0 1-6-6z" stroke="#3a414a" stroke-width="3" fill="#fff"/><use xlink:href="#x" transform="matrix(1,0,0,1,1282.6640149349462,485.50235582179755) translate(47.62222222222223 40.4875)"/><path d="M1228 519.77l43.66.13" stroke="#1071e5" stroke-width="9" stroke-linejoin="round" fill="none"/><path d="M1210.5 519.72l13-7.46-.03 15z" stroke="#1071e5" stroke-width="9" fill="#1071e5"/><path d="M1276.16 515.44v8.95l-4.63-.02.03-8.95z" stroke="#1071e5" stroke-width=".05" fill="#1071e5"/><path d="M669.5 699.63H1034" stroke="#1071e5" stroke-width="9" stroke-linejoin="round" fill="none"/><path d="M652 699.63l13-7.5v15z" stroke="#1071e5" stroke-width="9" fill="#1071e5"/><path d="M1038.5 704.1h-4.62v-8.94h4.62z" stroke="#1071e5" stroke-width=".05" fill="#1071e5"/><path d="M1480.52 640.05L1514 640" stroke="#d916a8" stroke-width="9" stroke-linejoin="round" fill="none"/><path d="M1463.03 640.07l12.98-7.52.03 15z" stroke="#d916a8" stroke-width="9" fill="#d916a8"/><path d="M1518.5 644.48h-4.6l-.02-8.95h4.62z" stroke="#d916a8" stroke-width=".05" fill="#d916a8"/><path d="M1704.77 640h333.73" stroke="#d916a8" stroke-width="3" stroke-linejoin="round" fill="none"/><path d="M1684.5 640l18.77-10.83v21.66z" stroke="#d916a8" stroke-width="3" fill="#d916a8"/><path d="M2038.46 640h1.54" stroke="#d916a8" stroke-width="3" fill="none"/><path d="M1520 606a6 6 0 0 1 6-6h148a6 6 0 0 1 6 6v68a6 6 0 0 1-6 6h-148a6 6 0 0 1-6-6z" stroke="#3a414a" stroke-width="3" fill="#fff"/><use xlink:href="#v" transform="matrix(1,0,0,1,1525,605) translate(37.588888888888896 25.175)"/><use xlink:href="#w" transform="matrix(1,0,0,1,1525,605) translate(35.35000000000001 56.375)"/><path d="M1279.16 606a6 6 0 0 1 6-6h161.37a6 6 0 0 1 6 6v68.17a6 6 0 0 1-6 6h-161.37a6 6 0 0 1-6-6z" stroke="#3a414a" stroke-width="3" fill="#fff"/><use xlink:href="#x" transform="matrix(1,0,0,1,1284.1640062583742,605) translate(47.62222222222223 40.76875)"/><path d="M1229.5 639.9l43.66-.14" stroke="#1071e5" stroke-width="9" stroke-linejoin="round" fill="none"/><path d="M1212 639.97l12.97-7.55.05 15z" stroke="#1071e5" stroke-width="9" fill="#1071e5"/><path d="M1277.66 644.22l-4.6.02-.03-8.95 4.63-.03z" stroke="#1071e5" stroke-width=".05" fill="#1071e5"/><path d="M1480.52 759.88l34.98-.04" stroke="#d916a8" stroke-width="9" stroke-linejoin="round" fill="none"/><path d="M1463.03 759.9l12.98-7.5.03 15z" stroke="#d916a8" stroke-width="9" fill="#d916a8"/><path d="M1520 764.3h-4.6l-.02-8.94h4.62z" stroke="#d916a8" stroke-width=".05" fill="#d916a8"/><path d="M1706.27 759.83H2037" stroke="#d916a8" stroke-width="3" stroke-linejoin="round" fill="none"/><path d="M1686 759.83l18.77-10.83v21.67z" stroke="#d916a8" stroke-width="3" fill="#d916a8"/><path d="M2038.5 761.3h-1.54v-2.94h1.54z" stroke="#d916a8" stroke-width=".05" fill="#d916a8"/><path d="M1521.5 725.83a6 6 0 0 1 6-6h148a6 6 0 0 1 6 6v68a6 6 0 0 1-6 6h-148a6 6 0 0 1-6-6z" stroke="#3a414a" stroke-width="3" fill="#fff"/><use xlink:href="#v" transform="matrix(1,0,0,1,1526.4999913234283,724.8325477672889) translate(37.588888888888896 25.175)"/><use xlink:href="#w" transform="matrix(1,0,0,1,1526.4999913234283,724.8325477672889) translate(35.35000000000001 56.375)"/><path d="M1279.16 725.83a6 6 0 0 1 6-6h161.37a6 6 0 0 1 6 6V794a6 6 0 0 1-6 6h-161.37a6 6 0 0 1-6-6z" stroke="#3a414a" stroke-width="3" fill="#fff"/><use xlink:href="#x" transform="matrix(1,0,0,1,1284.1640062583742,724.832547767289) translate(47.62222222222223 40.76875)"/><path d="M1229.5 759.74l43.66-.14" stroke="#1071e5" stroke-width="9" stroke-linejoin="round" fill="none"/><path d="M1212 759.8l12.97-7.54.05 15z" stroke="#1071e5" stroke-width="9" fill="#1071e5"/><path d="M1277.66 764.05l-4.6.02-.03-8.95 4.63-.02z" stroke="#1071e5" stroke-width=".05" fill="#1071e5"/><path d="M1480.52 879.66h34.98" stroke="#d916a8" stroke-width="9" stroke-linejoin="round" fill="none"/><path d="M1463.03 879.66l13-7.5v15z" stroke="#d916a8" stroke-width="9" fill="#d916a8"/><path d="M1520 884.14h-4.62v-8.95h4.62z" stroke="#d916a8" stroke-width=".05" fill="#d916a8"/><path d="M1704.77 879.66h333.73" stroke="#d916a8" stroke-width="3" stroke-linejoin="round" fill="none"/><path d="M1684.5 879.66l18.77-10.83v21.67z" stroke="#d916a8" stroke-width="3" fill="#d916a8"/><path d="M2038.46 879.66h1.54" stroke="#d916a8" stroke-width="3" fill="none"/><path d="M1521.5 845.66a6 6 0 0 1 6-6H1674a6 6 0 0 1 6 6v68a6 6 0 0 1-6 6h-146.5a6 6 0 0 1-6-6z" stroke="#3a414a" stroke-width="3" fill="#fff"/><use xlink:href="#v" transform="matrix(1,0,0,1,1526.4999913234287,844.6650955345779) translate(37.088888888888896 25.175)"/><use xlink:href="#w" transform="matrix(1,0,0,1,1526.4999913234287,844.6650955345779) translate(34.85000000000001 56.375)"/><path d="M1279.16 845.66a6 6 0 0 1 6-6h161.37a6 6 0 0 1 6 6v68a6 6 0 0 1-6 6h-161.37a6 6 0 0 1-6-6z" stroke="#3a414a" stroke-width="3" fill="#fff"/><use xlink:href="#x" transform="matrix(1,0,0,1,1284.1640062583742,844.6650955345779) translate(47.62222222222223 40.4875)"/><path d="M1229.5 879.55l43.66-.2" stroke="#1071e5" stroke-width="9" stroke-linejoin="round" fill="none"/><path d="M1212 879.63l12.96-7.56.07 15z" stroke="#1071e5" stroke-width="9" fill="#1071e5"/><path d="M1277.66 883.8l-4.6.03-.03-8.96 4.63-.02z" stroke="#1071e5" stroke-width=".05" fill="#1071e5"/><path d="M742 1297.52l-94.5 1.84" stroke="#1071e5" stroke-width="9" stroke-linejoin="round" fill="none"/><path d="M759.5 1297.18l-12.84 7.75-.3-15z" stroke="#1071e5" stroke-width="9" fill="#1071e5"/><path d="M647.7 1303.83l-4.7.1v-8.96l4.53-.1z" stroke="#1071e5" stroke-width=".05" fill="#1071e5"/><path d="M1280 1086.34a6 6 0 0 1 6-6h148a6 6 0 0 1 6 6V1154a6 6 0 0 1-6 6h-148a6 6 0 0 1-6-6z" stroke="#3a414a" stroke-width="3" fill="#fff"/><use xlink:href="#x" transform="matrix(1,0,0,1,1285,1085.3349035890865) translate(40.62222222222223 40.4875)"/><path d="M1281.5 1206a6 6 0 0 1 6-6H1434a6 6 0 0 1 6 6v68a6 6 0 0 1-6 6h-146.5a6 6 0 0 1-6-6z" stroke="#3a414a" stroke-width="3" fill="#fff"/><use xlink:href="#x" transform="matrix(1,0,0,1,1286.4999913234285,1205) translate(40.12222222222223 40.76875)"/><path d="M1280 1326a6 6 0 0 1 6-6h148a6 6 0 0 1 6 6v67.66a6 6 0 0 1-6 6h-148a6 6 0 0 1-6-6z" stroke="#3a414a" stroke-width="3" fill="#fff"/><use xlink:href="#x" transform="matrix(1,0,0,1,1285,1325) translate(40.62222222222223 40.4875)"/><path d="M1280 1446a6 6 0 0 1 6-6h148a6 6 0 0 1 6 6v68a6 6 0 0 1-6 6h-148a6 6 0 0 1-6-6z" stroke="#3a414a" stroke-width="3" fill="#fff"/><use xlink:href="#x" transform="matrix(1,0,0,1,1285,1445) translate(40.62222222222223 40.4875)"/><path d="M1520 1086.34a6 6 0 0 1 6-6h148a6 6 0 0 1 6 6V1154a6 6 0 0 1-6 6h-148a6 6 0 0 1-6-6z" stroke="#3a414a" stroke-width="3" fill="#fff"/><use xlink:href="#v" transform="matrix(1,0,0,1,1525,1085.3349035890865) translate(37.588888888888896 25.175)"/><use xlink:href="#w" transform="matrix(1,0,0,1,1525,1085.3349035890865) translate(35.35000000000001 56.375)"/><path d="M1760 1086a6 6 0 0 1 6-6h148a6 6 0 0 1 6 6v68a6 6 0 0 1-6 6h-148a6 6 0 0 1-6-6z" stroke="#3a414a" stroke-width="3" fill="#fff"/><use xlink:href="#j" transform="matrix(1,0,0,1,1765,1085) translate(13.033333333333346 40.4875)"/><use xlink:href="#y" transform="matrix(1,0,0,1,1765,1085) translate(53.405555555555566 40.4875)"/><path d="M1012 1298.85l-76-1.3" stroke="#1071e5" stroke-width="9" stroke-linejoin="round" fill="none"/><path d="M1029.5 1299.15l-13.12 7.27.26-15z" stroke="#1071e5" stroke-width="9" fill="#1071e5"/><path d="M936.2 1293.06l-.16 8.95-4.54-.07v-8.95z" stroke="#1071e5" stroke-width=".05" fill="#1071e5"/><path d="M1520 1206a6 6 0 0 1 6-6h148a6 6 0 0 1 6 6v67.66a6 6 0 0 1-6 6h-148a6 6 0 0 1-6-6z" stroke="#3a414a" stroke-width="3" fill="#fff"/><use xlink:href="#v" transform="matrix(1,0,0,1,1525,1205) translate(37.588888888888896 25.175)"/><use xlink:href="#w" transform="matrix(1,0,0,1,1525,1205) translate(35.35000000000001 56.375)"/><path d="M1520 1326a6 6 0 0 1 6-6h148a6 6 0 0 1 6 6v67.66a6 6 0 0 1-6 6h-148a6 6 0 0 1-6-6z" stroke="#3a414a" stroke-width="3" fill="#fff"/><use xlink:href="#v" transform="matrix(1,0,0,1,1525,1325) translate(37.588888888888896 25.175)"/><use xlink:href="#w" transform="matrix(1,0,0,1,1525,1325) translate(35.35000000000001 56.375)"/><path d="M1520 1446a6 6 0 0 1 6-6h148a6 6 0 0 1 6 6v67.66a6 6 0 0 1-6 6h-148a6 6 0 0 1-6-6z" stroke="#3a414a" stroke-width="3" fill="#fff"/><use xlink:href="#v" transform="matrix(1,0,0,1,1525,1445) translate(37.588888888888896 25.175)"/><use xlink:href="#w" transform="matrix(1,0,0,1,1525,1445) translate(35.35000000000001 56.375)"/><path d="M1252 1120.7h-46" stroke="#1071e5" stroke-width="9" stroke-linejoin="round" fill="none"/><path d="M1269.5 1120.7l-13 7.5v-15z" stroke="#1071e5" stroke-width="9" fill="#1071e5"/><path d="M1206.12 1125.17h-4.62v-8.95h4.62z" stroke="#1071e5" stroke-width=".05" fill="#1071e5"/><path d="M1253.5 1240h-49" stroke="#1071e5" stroke-width="9" stroke-linejoin="round" fill="none"/><path d="M1271 1240l-13 7.5v-15z" stroke="#1071e5" stroke-width="9" fill="#1071e5"/><path d="M1204.62 1240H1200" stroke="#1071e5" stroke-width="9" fill="none"/><path d="M1252 1359.9l-47.5.1" stroke="#1071e5" stroke-width="9" stroke-linejoin="round" fill="none"/><path d="M1269.5 1359.85l-12.97 7.53-.04-15z" stroke="#1071e5" stroke-width="9" fill="#1071e5"/><path d="M1204.62 1360H1200" stroke="#1071e5" stroke-width="9" fill="none"/><path d="M1252 1480h-46" stroke="#1071e5" stroke-width="9" stroke-linejoin="round" fill="none"/><path d="M1269.5 1480l-13 7.5v-15z" stroke="#1071e5" stroke-width="9" fill="#1071e5"/><path d="M1206.12 1484.47h-4.62v-8.94h4.62z" stroke="#1071e5" stroke-width=".05" fill="#1071e5"/><path d="M1735.23 1120.17H1683" stroke="#d916a8" stroke-width="3" stroke-linejoin="round" fill="none"/><path d="M1755.5 1120.17l-18.77 10.83v-21.67z" stroke="#d916a8" stroke-width="3" fill="#d916a8"/><path d="M1683.04 1121.64h-1.54v-2.95h1.54z" stroke="#d916a8" stroke-width=".05" fill="#d916a8"/><path d="M1492 1120h-46" stroke="#d916a8" stroke-width="9" stroke-linejoin="round" fill="none"/><path d="M1509.5 1120l-13 7.5v-15z" stroke="#d916a8" stroke-width="9" fill="#d916a8"/><path d="M1446.12 1120h-4.62" stroke="#d916a8" stroke-width="9" fill="none"/><path d="M1493.5 1239.3h-49" stroke="#d916a8" stroke-width="9" stroke-linejoin="round" fill="none"/><path d="M1511 1239.3l-13 7.5v-15z" stroke="#d916a8" stroke-width="9" fill="#d916a8"/><path d="M1444.62 1239.3H1440" stroke="#d916a8" stroke-width="9" fill="none"/><path d="M1492 1359.2l-47.5.1" stroke="#d916a8" stroke-width="9" stroke-linejoin="round" fill="none"/><path d="M1509.5 1359.15l-12.97 7.53-.04-15z" stroke="#d916a8" stroke-width="9" fill="#d916a8"/><path d="M1444.62 1359.3H1440" stroke="#d916a8" stroke-width="9" fill="none"/><path d="M1492 1479.3h-46" stroke="#d916a8" stroke-width="9" stroke-linejoin="round" fill="none"/><path d="M1509.5 1479.3l-13 7.5v-15z" stroke="#d916a8" stroke-width="9" fill="#d916a8"/><path d="M1446.12 1479.3h-4.62" stroke="#d916a8" stroke-width="9" fill="none"/><path d="M1735.23 1240H1683" stroke="#d916a8" stroke-width="3" stroke-linejoin="round" fill="none"/><path d="M1755.5 1240l-18.77 10.83v-21.66z" stroke="#d916a8" stroke-width="3" fill="#d916a8"/><path d="M1683.04 1241.47h-1.54v-2.94h1.54z" stroke="#d916a8" stroke-width=".05" fill="#d916a8"/><path d="M1735.23 1360H1683" stroke="#d916a8" stroke-width="3" stroke-linejoin="round" fill="none"/><path d="M1755.5 1360l-18.77 10.83v-21.66z" stroke="#d916a8" stroke-width="3" fill="#d916a8"/><path d="M1683.04 1361.47h-1.54v-2.94h1.54z" stroke="#d916a8" stroke-width=".05" fill="#d916a8"/><path d="M1735.23 1480H1683" stroke="#d916a8" stroke-width="3" stroke-linejoin="round" fill="none"/><path d="M1755.5 1480l-18.77 10.83v-21.66z" stroke="#d916a8" stroke-width="3" fill="#d916a8"/><path d="M1683.04 1481.47h-1.54v-2.94h1.54z" stroke="#d916a8" stroke-width=".05" fill="#d916a8"/><path d="M1760 1206a6 6 0 0 1 6-6h148a6 6 0 0 1 6 6v68a6 6 0 0 1-6 6h-148a6 6 0 0 1-6-6z" stroke="#3a414a" stroke-width="3" fill="#fff"/><use xlink:href="#j" transform="matrix(1,0,0,1,1765,1205) translate(13.033333333333346 40.4875)"/><use xlink:href="#y" transform="matrix(1,0,0,1,1765,1205) translate(53.405555555555566 40.4875)"/><path d="M1760 1326a6 6 0 0 1 6-6h148a6 6 0 0 1 6 6v68a6 6 0 0 1-6 6h-148a6 6 0 0 1-6-6z" stroke="#3a414a" stroke-width="3" fill="#fff"/><use xlink:href="#j" transform="matrix(1,0,0,1,1765,1325) translate(13.033333333333346 40.4875)"/><use xlink:href="#y" transform="matrix(1,0,0,1,1765,1325) translate(53.405555555555566 40.4875)"/><path d="M1760 1446a6 6 0 0 1 6-6h148a6 6 0 0 1 6 6v68a6 6 0 0 1-6 6h-148a6 6 0 0 1-6-6z" stroke="#3a414a" stroke-width="3" fill="#fff"/><use xlink:href="#j" transform="matrix(1,0,0,1,1765,1445) translate(13.033333333333346 40.4875)"/><use xlink:href="#y" transform="matrix(1,0,0,1,1765,1445) translate(53.405555555555566 40.4875)"/><path d="M2016.73 1120H1923" stroke="#d916a8" stroke-width="3" stroke-linejoin="round" fill="none"/><path d="M2037 1120l-18.77 10.83v-21.66z" stroke="#d916a8" stroke-width="3" fill="#d916a8"/><path d="M1923.04 1121.47h-1.54v-2.94h1.54z" stroke="#d916a8" stroke-width=".05" fill="#d916a8"/><path d="M2015.23 1240H1923" stroke="#d916a8" stroke-width="3" stroke-linejoin="round" fill="none"/><path d="M2035.5 1240l-18.77 10.83v-21.66z" stroke="#d916a8" stroke-width="3" fill="#d916a8"/><path d="M1923.04 1241.47h-1.54v-2.94h1.54z" stroke="#d916a8" stroke-width=".05" fill="#d916a8"/><path d="M2015.23 1360H1923" stroke="#d916a8" stroke-width="3" stroke-linejoin="round" fill="none"/><path d="M2035.5 1360l-18.77 10.83v-21.66z" stroke="#d916a8" stroke-width="3" fill="#d916a8"/><path d="M1923.04 1361.47h-1.54v-2.94h1.54z" stroke="#d916a8" stroke-width=".05" fill="#d916a8"/><path d="M2015.23 1480H1923" stroke="#d916a8" stroke-width="3" stroke-linejoin="round" fill="none"/><path d="M2035.5 1480l-18.77 10.83v-21.66z" stroke="#d916a8" stroke-width="3" fill="#d916a8"/><path d="M1923.04 1481.47h-1.54v-2.94h1.54z" stroke="#d916a8" stroke-width=".05" fill="#d916a8"/><path d="M146.5 960h169" stroke="#9391ff" stroke-width="9" stroke-linejoin="round" fill="none"/><path d="M129 960l13-7.5v15z" stroke="#9391ff" stroke-width="9" fill="#9391ff"/><path d="M315.4 960h4.6" stroke="#9391ff" stroke-width="9" fill="none"/><path d="M293.5 1000h-169" stroke="#9391ff" stroke-width="9" stroke-linejoin="round" fill="none"/><path d="M311 1000l-13 7.5v-15z" stroke="#9391ff" stroke-width="9" fill="#9391ff"/><path d="M124.61 1000h-4.6" stroke="#9391ff" stroke-width="9" fill="none"/><path d="M2263.26 520h175.24" stroke="#d916a8" stroke-width="3" stroke-linejoin="round" fill="none"/><path d="M2243 520l18.76-10.83v21.66z" stroke="#d916a8" stroke-width="3" fill="#d916a8"/><path d="M2438.46 520h1.54" stroke="#d916a8" stroke-width="3" fill="none"/><path d="M2263.26 640.1h175.24" stroke="#d916a8" stroke-width="3" stroke-linejoin="round" fill="none"/><path d="M2243 640.1l18.76-10.82v21.67z" stroke="#d916a8" stroke-width="3" fill="#d916a8"/><path d="M2438.46 640.1h1.54" stroke="#d916a8" stroke-width="3" fill="none"/><path d="M2263.76 760.06h174.74" stroke="#d916a8" stroke-width="3" stroke-linejoin="round" fill="none"/><path d="M2243.5 760.06l18.76-10.84v21.67z" stroke="#d916a8" stroke-width="3" fill="#d916a8"/><path d="M2438.46 760.06h1.54" stroke="#d916a8" stroke-width="3" fill="none"/><path d="M2416.74 1120H2243" stroke="#d916a8" stroke-width="3" stroke-linejoin="round" fill="none"/><path d="M2437 1120l-18.76 10.83v-21.66z" stroke="#d916a8" stroke-width="3" fill="#d916a8"/><path d="M2243.04 1121.47h-1.54v-2.94h1.54z" stroke="#d916a8" stroke-width=".05" fill="#d916a8"/><path d="M2415.8 1240H2243" stroke="#d916a8" stroke-width="3" stroke-linejoin="round" fill="none"/><path d="M2436.06 1240l-18.76 10.83v-21.66z" stroke="#d916a8" stroke-width="3" fill="#d916a8"/><path d="M2243.04 1241.47h-1.54v-2.94h1.54z" stroke="#d916a8" stroke-width=".05" fill="#d916a8"/><path d="M2416.74 1360H2243" stroke="#d916a8" stroke-width="3" stroke-linejoin="round" fill="none"/><path d="M2437 1360l-18.76 10.83v-21.66z" stroke="#d916a8" stroke-width="3" fill="#d916a8"/><path d="M2243.04 1361.47h-1.54v-2.94h1.54z" stroke="#d916a8" stroke-width=".05" fill="#d916a8"/><path d="M2416.74 1480H2243" stroke="#d916a8" stroke-width="3" stroke-linejoin="round" fill="none"/><path d="M2437 1480l-18.76 10.83v-21.66z" stroke="#d916a8" stroke-width="3" fill="#d916a8"/><path d="M2243.04 1481.47h-1.54v-2.94h1.54z" stroke="#d916a8" stroke-width=".05" fill="#d916a8"/><path d="M2041.5 520h6.16m12.3 0h12.32m12.3 0h12.33m12.32 0h12.3m12.32 0h12.32m12.3 0h12.32m12.3 0h12.33m12.32 0h12.3m12.32 0h6.16" stroke="#3a414a" stroke-width="3" stroke-linejoin="round" fill="none"/><path d="M2041.54 520H2040M2238.46 520h1.54" stroke="#3a414a" stroke-width="3" fill="none"/><path d="M2041.5 640.1h6.16m12.3 0h12.32m12.3 0h12.33m12.32 0h12.3m12.32 0h12.32m12.3 0h12.32m12.3 0h12.33m12.32 0h12.3m12.32 0h6.16" stroke="#3a414a" stroke-width="3" stroke-linejoin="round" fill="none"/><path d="M2041.54 640.1H2040M2238.46 640.1h1.54" stroke="#3a414a" stroke-width="3" fill="none"/><path d="M2042 760.06h6.14m12.28 0h12.28m12.3 0h12.27m12.28 0h12.28m12.28 0h12.3m12.27 0h12.28m12.3 0h12.27m12.28 0h12.28m12.28 0h6.14" stroke="#3a414a" stroke-width="3" stroke-linejoin="round" fill="none"/><path d="M2042.04 760.06h-1.54M2238.46 760.06h1.54" stroke="#3a414a" stroke-width="3" fill="none"/><path d="M2041.5 880h6.16m12.3 0h12.32m12.3 0h12.33m12.32 0h12.3m12.32 0h12.32m12.3 0h12.32m12.3 0h12.33m12.32 0h12.3m12.32 0h6.16" stroke="#3a414a" stroke-width="3" stroke-linejoin="round" fill="none"/><path d="M2041.54 880H2040M2238.46 880h1.54" stroke="#3a414a" stroke-width="3" fill="none"/><path d="M2238.5 1120h-6.04m-12.08 0h-12.08m-12.07 0h-12.08m-12.08 0H2160m-12.1 0h-12.06m-12.08 0h-12.08m-12.08 0h-12.08m-12.07 0h-12.08m-12.08 0h-6.05" stroke="#3a414a" stroke-width="3" stroke-linejoin="round" fill="none"/><path d="M2238.46 1120h1.54M2045.3 1120h-1.55" stroke="#3a414a" stroke-width="3" fill="none"/><path d="M2237.57 1240h-6m-12.03 0h-12.02m-12.02 0h-12.02m-12.02 0h-12.02m-12.02 0h-12.02m-12.02 0h-12.02m-12.02 0h-12.02m-12.02 0h-12.02m-12.02 0h-6" stroke="#3a414a" stroke-width="3" stroke-linejoin="round" fill="none"/><path d="M2237.53 1240h1.54M2045.3 1240h-1.55" stroke="#3a414a" stroke-width="3" fill="none"/><path d="M2238.5 1360h-6.04m-12.08 0h-12.08m-12.07 0h-12.08m-12.08 0H2160m-12.1 0h-12.06m-12.08 0h-12.08m-12.08 0h-12.08m-12.07 0h-12.08m-12.08 0h-6.05" stroke="#3a414a" stroke-width="3" stroke-linejoin="round" fill="none"/><path d="M2238.46 1360h1.54M2045.3 1360h-1.55" stroke="#3a414a" stroke-width="3" fill="none"/><path d="M2238.5 1480h-6.04m-12.08 0h-12.08m-12.07 0h-12.08m-12.08 0H2160m-12.1 0h-12.06m-12.08 0h-12.08m-12.08 0h-12.08m-12.07 0h-12.08m-12.08 0h-6.05" stroke="#3a414a" stroke-width="3" stroke-linejoin="round" fill="none"/><path d="M2238.46 1480h1.54M2045.3 1480h-1.55" stroke="#3a414a" stroke-width="3" fill="none"/><path d="M1120 286a6 6 0 0 1 6-6h165.93a6 6 0 0 1 6 6v58.22a6 6 0 0 1-6 6H1126a6 6 0 0 1-6-6z" fill="none"/><use xlink:href="#z" transform="matrix(1,0,0,1,1120,280) translate(19.08888888888889 25.1)"/><use xlink:href="#A" transform="matrix(1,0,0,1,1120,280) translate(104.16666666666667 25.1)"/><use xlink:href="#B" transform="matrix(1,0,0,1,1120,280) translate(8.291666666666686 56.3)"/><use xlink:href="#C" transform="matrix(1,0,0,1,1120,280) translate(80.36944444444447 56.3)"/><path d="M1400 286a6 6 0 0 1 6-6h165.93a6 6 0 0 1 6 6v58.22a6 6 0 0 1-6 6H1406a6 6 0 0 1-6-6z" fill="none"/><use xlink:href="#D" transform="matrix(1,0,0,1,1400,280) translate(4.788888888888891 25.1)"/><use xlink:href="#E" transform="matrix(1,0,0,1,1400,280) translate(98.38888888888889 25.1)"/><use xlink:href="#F" transform="matrix(1,0,0,1,1400,280) translate(8.291666666666686 56.3)"/><use xlink:href="#G" transform="matrix(1,0,0,1,1400,280) translate(80.36944444444447 56.3)"/><path d="M573.5 1740.2h-129" stroke="#d916a8" stroke-width="9" stroke-linejoin="round" fill="none"/><path d="M591 1740.2l-13 7.5v-15z" stroke="#d916a8" stroke-width="9" fill="#d916a8"/><path d="M444.6 1740.2H440" stroke="#d916a8" stroke-width="9" fill="none"/><path d="M573.5 1820.2h-129" stroke="#1071e5" stroke-width="9" stroke-linejoin="round" fill="none"/><path d="M591 1820.2l-13 7.5v-15z" stroke="#1071e5" stroke-width="9" fill="#1071e5"/><path d="M444.6 1820.2H440" stroke="#1071e5" stroke-width="9" fill="none"/><path d="M582.5 1900.2h-141" stroke="#d916a8" stroke-width="3" stroke-linejoin="round" fill="none"/><path d="M597 1900.2l-13 7.5v-15z" stroke="#d916a8" stroke-width="3" fill="#d916a8"/><path d="M441.54 1900.2H440" stroke="#d916a8" stroke-width="3" fill="none"/><path d="M582.5 1980.2h-141" stroke="#1071e5" stroke-width="3" stroke-linejoin="round" fill="none"/><path d="M597 1980.2l-13 7.5v-15z" stroke="#1071e5" stroke-width="3" fill="#1071e5"/><path d="M441.54 1980.2H440" stroke="#1071e5" stroke-width="3" fill="none"/><path d="M600 1706.2a6 6 0 0 1 6-6h468a6 6 0 0 1 6 6v68a6 6 0 0 1-6 6H606a6 6 0 0 1-6-6z" fill="none"/><g><use xlink:href="#H" transform="matrix(1,0,0,1,605,1705.1991570541259) translate(0 40.333333333333336)"/><use xlink:href="#I" transform="matrix(1,0,0,1,605,1705.1991570541259) translate(7.407407407407408 40.333333333333336)"/><use xlink:href="#J" transform="matrix(1,0,0,1,605,1705.1991570541259) translate(103.40740740740742 40.333333333333336)"/><use xlink:href="#K" transform="matrix(1,0,0,1,605,1705.1991570541259) translate(187.55555555555557 40.333333333333336)"/><use xlink:href="#L" transform="matrix(1,0,0,1,605,1705.1991570541259) translate(261.4814814814815 40.333333333333336)"/></g><path d="M600 1786.2a6 6 0 0 1 6-6h468a6 6 0 0 1 6 6v68a6 6 0 0 1-6 6H606a6 6 0 0 1-6-6z" fill="none"/><g><use xlink:href="#H" transform="matrix(1,0,0,1,605,1785.1991570541259) translate(0 40.333333333333336)"/><use xlink:href="#M" transform="matrix(1,0,0,1,605,1785.1991570541259) translate(7.407407407407408 40.333333333333336)"/><use xlink:href="#N" transform="matrix(1,0,0,1,605,1785.1991570541259) translate(94.66666666666666 40.333333333333336)"/><use xlink:href="#K" transform="matrix(1,0,0,1,605,1785.1991570541259) translate(158.22222222222223 40.333333333333336)"/><use xlink:href="#L" transform="matrix(1,0,0,1,605,1785.1991570541259) translate(232.14814814814815 40.333333333333336)"/></g><path d="M600 1866.2a6 6 0 0 1 6-6h468a6 6 0 0 1 6 6v68a6 6 0 0 1-6 6H606a6 6 0 0 1-6-6z" fill="none"/><g><use xlink:href="#H" transform="matrix(1,0,0,1,605,1865.1991570541259) translate(0 40.333333333333336)"/><use xlink:href="#I" transform="matrix(1,0,0,1,605,1865.1991570541259) translate(7.407407407407408 40.333333333333336)"/><use xlink:href="#J" transform="matrix(1,0,0,1,605,1865.1991570541259) translate(103.40740740740742 40.333333333333336)"/><use xlink:href="#K" transform="matrix(1,0,0,1,605,1865.1991570541259) translate(187.55555555555557 40.333333333333336)"/><use xlink:href="#L" transform="matrix(1,0,0,1,605,1865.1991570541259) translate(261.4814814814815 40.333333333333336)"/></g><path d="M600 1946.2a6 6 0 0 1 6-6h468a6 6 0 0 1 6 6v68a6 6 0 0 1-6 6H606a6 6 0 0 1-6-6z" fill="none"/><g><use xlink:href="#H" transform="matrix(1,0,0,1,605,1945.1991570541259) translate(0 40.333333333333336)"/><use xlink:href="#M" transform="matrix(1,0,0,1,605,1945.1991570541259) translate(7.407407407407408 40.333333333333336)"/><use xlink:href="#N" transform="matrix(1,0,0,1,605,1945.1991570541259) translate(94.66666666666666 40.333333333333336)"/><use xlink:href="#K" transform="matrix(1,0,0,1,605,1945.1991570541259) translate(158.22222222222223 40.333333333333336)"/><use xlink:href="#L" transform="matrix(1,0,0,1,605,1945.1991570541259) translate(232.14814814814815 40.333333333333336)"/></g><path d="M240 1706.2a6 6 0 0 1 6-6h148a6 6 0 0 1 6 6v148a6 6 0 0 1-6 6H246a6 6 0 0 1-6-6z" fill="none"/><path d="M400 1860.2c-5.52 0-10-4.48-10-10v-60c0-5.52-4.48-10-10-10 5.52 0 10-4.48 10-10v-60c0-5.52 4.48-10 10-10" stroke="#3a414a" stroke-width="3" fill="none"/><g><use xlink:href="#O" transform="matrix(1,0,0,1,245,1705.1991570541259) translate(40.70000000000002 80.2)"/></g><path d="M240 1866.2a6 6 0 0 1 6-6h148a6 6 0 0 1 6 6v148a6 6 0 0 1-6 6H246a6 6 0 0 1-6-6z" fill="none"/><path d="M400 2020.2c-5.52 0-10-4.48-10-10v-60c0-5.52-4.48-10-10-10 5.52 0 10-4.48 10-10v-60c0-5.52 4.48-10 10-10" stroke="#3a414a" stroke-width="3" fill="none"/><g><use xlink:href="#P" transform="matrix(1,0,0,1,245,1865.1991570541259) translate(55.144444444444446 80.2)"/></g><path d="M2264.77 880.18h173.73" stroke="#d916a8" stroke-width="3" stroke-linejoin="round" fill="none"/><path d="M2244.5 880.18l18.77-10.83V891z" stroke="#d916a8" stroke-width="3" fill="#d916a8"/><path d="M2438.46 880.18h1.54" stroke="#d916a8" stroke-width="3" fill="none"/><path d="M-160 926a6 6 0 0 1 6-6H34a6 6 0 0 1 6 6v108a6 6 0 0 1-6 6h-188a6 6 0 0 1-6-6z" fill="none"/><g><use xlink:href="#Q" transform="matrix(1,0,0,1,-155,925) translate(102.33333333333334 63)"/></g><path d="M2521.8 858.74a6 6 0 0 1 6-6h348a6 6 0 0 1 6 6v228a6 6 0 0 1-6 6h-348a6 6 0 0 1-6-6z" fill="none"/><g><use xlink:href="#R" transform="matrix(1,0,0,1,2526.814560780834,857.7417568766637) translate(109.05555555555556 99)"/><use xlink:href="#S" transform="matrix(1,0,0,1,2526.814560780834,857.7417568766637) translate(65.77777777777779 147)"/><use xlink:href="#T" transform="matrix(1,0,0,1,2526.814560780834,857.7417568766637) translate(192 147)"/></g><defs><path d="M199 0l-22-63H83L61 0H9l90-248h61L250 0h-51zm-33-102l-36-108c-10 38-24 72-36 108h72" id="U"/><path d="M85 4C-2 5 27-109 22-190h50c7 57-23 150 33 157 60-5 35-97 40-157h50l1 190h-47c-2-12 1-28-3-38-12 25-28 42-61 42" id="V"/><path d="M135-150c-39-12-60 13-60 57V0H25l-1-190h47c2 13-1 29 3 40 6-28 27-53 61-41v41" id="W"/><path d="M110-194c64 0 96 36 96 99 0 64-35 99-97 99-61 0-95-36-95-99 0-62 34-99 96-99zm-1 164c35 0 45-28 45-65 0-40-10-65-43-65-34 0-45 26-45 65 0 36 10 65 43 65" id="X"/><path d="M133-34C117-15 103 5 69 4 32 3 11-16 11-54c-1-60 55-63 116-61 1-26-3-47-28-47-18 1-26 9-28 27l-52-2c7-38 36-58 82-57s74 22 75 68l1 82c-1 14 12 18 25 15v27c-30 8-71 5-69-32zm-48 3c29 0 43-24 42-57-32 0-66-3-65 30 0 17 8 27 23 27" id="Y"/><g id="a"><use transform="matrix(0.07222222222222222,0,0,0.07222222222222222,0,0)" xlink:href="#U"/><use transform="matrix(0.07222222222222222,0,0,0.07222222222222222,18.705555555555552,0)" xlink:href="#V"/><use transform="matrix(0.07222222222222222,0,0,0.07222222222222222,34.52222222222222,0)" xlink:href="#W"/><use transform="matrix(0.07222222222222222,0,0,0.07222222222222222,44.633333333333326,0)" xlink:href="#X"/><use transform="matrix(0.07222222222222222,0,0,0.07222222222222222,60.44999999999999,0)" xlink:href="#W"/><use transform="matrix(0.07222222222222222,0,0,0.07222222222222222,70.5611111111111,0)" xlink:href="#Y"/></g><path d="M240-174c0 40-23 61-54 70L253 0h-59l-57-94H76V0H24v-248c93 4 217-23 216 74zM76-134c48-2 112 12 112-38 0-48-66-32-112-35v73" id="Z"/><path d="M76-208v77h127v40H76V0H24v-248h183v40H76" id="aa"/><path d="M175 0L67-191c6 58 2 128 3 191H24v-248h59L193-55c-6-58-2-129-3-193h46V0h-61" id="ab"/><path d="M67-125c0 53 21 87 73 88 37 1 54-22 65-47l45 17C233-25 199 4 140 4 58 4 20-42 15-125 8-235 124-281 211-232c18 10 29 29 36 50l-46 12c-8-25-30-41-62-41-52 0-71 34-72 86" id="ac"/><g id="b"><use transform="matrix(0.07222222222222222,0,0,0.07222222222222222,0,0)" xlink:href="#Z"/><use transform="matrix(0.07222222222222222,0,0,0.07222222222222222,18.705555555555552,0)" xlink:href="#aa"/><use transform="matrix(0.07222222222222222,0,0,0.07222222222222222,34.52222222222222,0)" xlink:href="#ab"/><use transform="matrix(0.07222222222222222,0,0,0.07222222222222222,53.227777777777774,0)" xlink:href="#X"/><use transform="matrix(0.07222222222222222,0,0,0.07222222222222222,69.04444444444444,0)" xlink:href="#ac"/></g><path d="M182-130c37 4 62 22 62 59C244 23 116-4 24 0v-248c84 5 203-23 205 63 0 31-19 50-47 55zM76-148c40-3 101 13 101-30 0-44-60-28-101-31v61zm0 110c48-3 116 14 116-37 0-48-69-32-116-35v72" id="ad"/><path d="M25 0v-261h50V0H25" id="ae"/><path d="M190-63c-7 42-38 67-86 67-59 0-84-38-90-98-12-110 154-137 174-36l-49 2c-2-19-15-32-35-32-30 0-35 28-38 64-6 74 65 87 74 30" id="af"/><path d="M147 0L96-86 75-71V0H25v-261h50v150l67-79h53l-66 74L201 0h-54" id="ag"/><g id="c"><use transform="matrix(0.07222222222222222,0,0,0.07222222222222222,0,0)" xlink:href="#ad"/><use transform="matrix(0.07222222222222222,0,0,0.07222222222222222,18.705555555555552,0)" xlink:href="#ae"/><use transform="matrix(0.07222222222222222,0,0,0.07222222222222222,25.927777777777774,0)" xlink:href="#X"/><use transform="matrix(0.07222222222222222,0,0,0.07222222222222222,41.74444444444444,0)" xlink:href="#af"/><use transform="matrix(0.07222222222222222,0,0,0.07222222222222222,56.18888888888888,0)" xlink:href="#ag"/></g><path d="M182 0l-62-99L58 0H3l86-130-79-118h55l55 88 55-88h55l-75 118L237 0h-55" id="ah"/><path d="M25-224v-37h50v37H25zM25 0v-190h50V0H25" id="ai"/><path d="M135-194c87-1 58 113 63 194h-50c-7-57 23-157-34-157-59 0-34 97-39 157H25l-1-190h47c2 12-1 28 3 38 12-26 28-41 61-42" id="aj"/><path d="M144 0l-44-69L55 0H2l70-98-66-92h53l41 62 40-62h54l-67 91 71 99h-54" id="ak"/><g id="d"><use transform="matrix(0.07222222222222222,0,0,0.07222222222222222,0,0)" xlink:href="#ah"/><use transform="matrix(0.07222222222222222,0,0,0.07222222222222222,17.333333333333332,0)" xlink:href="#ai"/><use transform="matrix(0.07222222222222222,0,0,0.07222222222222222,24.555555555555554,0)" xlink:href="#ae"/><use transform="matrix(0.07222222222222222,0,0,0.07222222222222222,31.777777777777775,0)" xlink:href="#ai"/><use transform="matrix(0.07222222222222222,0,0,0.07222222222222222,38.99999999999999,0)" xlink:href="#aj"/><use transform="matrix(0.07222222222222222,0,0,0.07222222222222222,54.81666666666666,0)" xlink:href="#ak"/></g><g id="e"><use transform="matrix(0.07222222222222222,0,0,0.07222222222222222,0,0)" xlink:href="#U"/><use transform="matrix(0.07222222222222222,0,0,0.07222222222222222,18.705555555555552,0)" xlink:href="#V"/><use transform="matrix(0.07222222222222222,0,0,0.07222222222222222,34.52222222222222,0)" xlink:href="#W"/><use transform="matrix(0.07222222222222222,0,0,0.07222222222222222,44.633333333333326,0)" xlink:href="#X"/><use transform="matrix(0.07222222222222222,0,0,0.07222222222222222,60.44999999999999,0)" xlink:href="#W"/><use transform="matrix(0.07222222222222222,0,0,0.07222222222222222,70.5611111111111,0)" xlink:href="#Y"/></g><path d="M24 0v-248h52V0H24" id="al"/><path d="M24-248c93 1 206-16 204 79-1 75-69 88-152 82V0H24v-248zm52 121c47 0 100 7 100-41 0-47-54-39-100-39v80" id="am"/><g id="f"><use transform="matrix(0.07222222222222222,0,0,0.07222222222222222,0,0)" xlink:href="#al"/><use transform="matrix(0.07222222222222222,0,0,0.07222222222222222,7.222222222222221,0)" xlink:href="#am"/></g><path d="M185-48c-13 30-37 53-82 52C43 2 14-33 14-96s30-98 90-98c62 0 83 45 84 108H66c0 31 8 55 39 56 18 0 30-7 34-22zm-45-69c5-46-57-63-70-21-2 6-4 13-4 21h74" id="an"/><g id="g"><use transform="matrix(0.07222222222222222,0,0,0.07222222222222222,0,0)" xlink:href="#ac"/><use transform="matrix(0.07222222222222222,0,0,0.07222222222222222,18.705555555555552,0)" xlink:href="#X"/><use transform="matrix(0.07222222222222222,0,0,0.07222222222222222,34.52222222222222,0)" xlink:href="#W"/><use transform="matrix(0.07222222222222222,0,0,0.07222222222222222,44.633333333333326,0)" xlink:href="#an"/></g><path d="M190 0L58-211 59 0H30v-248h39L202-35l-2-213h31V0h-41" id="ao"/><path d="M100-194c62-1 85 37 85 99 1 63-27 99-86 99S16-35 15-95c0-66 28-99 85-99zM99-20c44 1 53-31 53-75 0-43-8-75-51-75s-53 32-53 75 10 74 51 75" id="ap"/><path d="M212-179c-10-28-35-45-73-45-59 0-87 40-87 99 0 60 29 101 89 101 43 0 62-24 78-52l27 14C228-24 195 4 139 4 59 4 22-46 18-125c-6-104 99-153 187-111 19 9 31 26 39 46" id="aq"/><g id="h"><use transform="matrix(0.07222222222222222,0,0,0.07222222222222222,0,0)" xlink:href="#ao"/><use transform="matrix(0.07222222222222222,0,0,0.07222222222222222,18.705555555555552,0)" xlink:href="#ap"/><use transform="matrix(0.07222222222222222,0,0,0.07222222222222222,33.14999999999999,0)" xlink:href="#aq"/></g><path d="M185-189c-5-48-123-54-124 2 14 75 158 14 163 119 3 78-121 87-175 55-17-10-28-26-33-46l33-7c5 56 141 63 141-1 0-78-155-14-162-118-5-82 145-84 179-34 5 7 8 16 11 25" id="ar"/><path d="M106-169C34-169 62-67 57 0H25v-261h32l-1 103c12-21 28-36 61-36 89 0 53 116 60 194h-32v-121c2-32-8-49-39-48" id="as"/><path d="M100-194c63 0 86 42 84 106H49c0 40 14 67 53 68 26 1 43-12 49-29l28 8c-11 28-37 45-77 45C44 4 14-33 15-96c1-61 26-98 85-98zm52 81c6-60-76-77-97-28-3 7-6 17-6 28h103" id="at"/><path d="M24 0v-261h32V0H24" id="au"/><g id="i"><use transform="matrix(0.07222222222222222,0,0,0.07222222222222222,0,0)" xlink:href="#ar"/><use transform="matrix(0.07222222222222222,0,0,0.07222222222222222,17.333333333333332,0)" xlink:href="#as"/><use transform="matrix(0.07222222222222222,0,0,0.07222222222222222,31.777777777777775,0)" xlink:href="#at"/><use transform="matrix(0.07222222222222222,0,0,0.07222222222222222,46.222222222222214,0)" xlink:href="#au"/><use transform="matrix(0.07222222222222222,0,0,0.07222222222222222,51.92777777777777,0)" xlink:href="#au"/></g><path d="M127-220V0H93v-220H8v-28h204v28h-85" id="av"/><path d="M195 0l-74-108L45 0H8l94-129-87-119h37l69 98 67-98h37l-84 118L233 0h-38" id="aw"/><g id="j"><use transform="matrix(0.07222222222222222,0,0,0.07222222222222222,0,0)" xlink:href="#av"/><use transform="matrix(0.07222222222222222,0,0,0.07222222222222222,15.816666666666665,0)" xlink:href="#aw"/></g><path d="M30-248c118-7 216 8 213 122C240-48 200 0 122 0H30v-248zM63-27c89 8 146-16 146-99s-60-101-146-95v194" id="ax"/><path d="M141-36C126-15 110 5 73 4 37 3 15-17 15-53c-1-64 63-63 125-63 3-35-9-54-41-54-24 1-41 7-42 31l-33-3c5-37 33-52 76-52 45 0 72 20 72 64v82c-1 20 7 32 28 27v20c-31 9-61-2-59-35zM48-53c0 20 12 33 32 33 41-3 63-29 60-74-43 2-92-5-92 41" id="ay"/><path d="M59-47c-2 24 18 29 38 22v24C64 9 27 4 27-40v-127H5v-23h24l9-43h21v43h35v23H59v120" id="az"/><path d="M115-194c55 1 70 41 70 98S169 2 115 4C84 4 66-9 55-30l1 105H24l-1-265h31l2 30c10-21 28-34 59-34zm-8 174c40 0 45-34 45-75s-6-73-45-74c-42 0-51 32-51 76 0 43 10 73 51 73" id="aA"/><g id="k"><use transform="matrix(0.07222222222222222,0,0,0.07222222222222222,0,0)" xlink:href="#ax"/><use transform="matrix(0.07222222222222222,0,0,0.07222222222222222,18.705555555555552,0)" xlink:href="#ay"/><use transform="matrix(0.07222222222222222,0,0,0.07222222222222222,33.14999999999999,0)" xlink:href="#az"/><use transform="matrix(0.07222222222222222,0,0,0.07222222222222222,40.37222222222221,0)" xlink:href="#ay"/><use transform="matrix(0.07222222222222222,0,0,0.07222222222222222,54.816666666666656,0)" xlink:href="#aA"/><use transform="matrix(0.07222222222222222,0,0,0.07222222222222222,69.26111111111109,0)" xlink:href="#ay"/><use transform="matrix(0.07222222222222222,0,0,0.07222222222222222,83.70555555555553,0)" xlink:href="#az"/><use transform="matrix(0.07222222222222222,0,0,0.07222222222222222,90.92777777777775,0)" xlink:href="#as"/></g><path d="M233-177c-1 41-23 64-60 70L243 0h-38l-65-103H63V0H30v-248c88 3 205-21 203 71zM63-129c60-2 137 13 137-47 0-61-80-42-137-45v92" id="aB"/><g id="l"><use transform="matrix(0.07222222222222222,0,0,0.07222222222222222,0,0)" xlink:href="#aB"/><use transform="matrix(0.07222222222222222,0,0,0.07222222222222222,18.705555555555552,0)" xlink:href="#aw"/></g><path d="M63-220v92h138v28H63V0H30v-248h175v28H63" id="aC"/><path d="M206 0h-36l-40-164L89 0H53L-1-190h32L70-26l43-164h34l41 164 42-164h31" id="aD"/><g id="m"><use transform="matrix(0.07222222222222222,0,0,0.07222222222222222,0,0)" xlink:href="#aC"/><use transform="matrix(0.07222222222222222,0,0,0.07222222222222222,15.816666666666665,0)" xlink:href="#au"/><use transform="matrix(0.07222222222222222,0,0,0.07222222222222222,21.52222222222222,0)" xlink:href="#ap"/><use transform="matrix(0.07222222222222222,0,0,0.07222222222222222,35.96666666666666,0)" xlink:href="#aD"/></g><path d="M117-194c89-4 53 116 60 194h-32v-121c0-31-8-49-39-48C34-167 62-67 57 0H25l-1-190h30c1 10-1 24 2 32 11-22 29-35 61-36" id="aE"/><path d="M114-163C36-179 61-72 57 0H25l-1-190h30c1 12-1 29 2 39 6-27 23-49 58-41v29" id="aF"/><g id="n"><use transform="matrix(0.07222222222222222,0,0,0.07222222222222222,0,0)" xlink:href="#aq"/><use transform="matrix(0.07222222222222222,0,0,0.07222222222222222,18.705555555555552,0)" xlink:href="#ap"/><use transform="matrix(0.07222222222222222,0,0,0.07222222222222222,33.14999999999999,0)" xlink:href="#aE"/><use transform="matrix(0.07222222222222222,0,0,0.07222222222222222,47.594444444444434,0)" xlink:href="#az"/><use transform="matrix(0.07222222222222222,0,0,0.07222222222222222,54.816666666666656,0)" xlink:href="#aF"/><use transform="matrix(0.07222222222222222,0,0,0.07222222222222222,63.4111111111111,0)" xlink:href="#ap"/><use transform="matrix(0.07222222222222222,0,0,0.07222222222222222,77.85555555555555,0)" xlink:href="#au"/></g><path d="M0 4l72-265h28L28 4H0" id="aG"/><use transform="matrix(0.07222222222222222,0,0,0.07222222222222222,0,0)" xlink:href="#aG" id="o"/><path d="M30 0v-248h187v28H63v79h144v27H63v87h162V0H30" id="aH"/><g id="p"><use transform="matrix(0.07222222222222222,0,0,0.07222222222222222,0,0)" xlink:href="#aH"/><use transform="matrix(0.07222222222222222,0,0,0.07222222222222222,17.333333333333332,0)" xlink:href="#aF"/><use transform="matrix(0.07222222222222222,0,0,0.07222222222222222,25.927777777777774,0)" xlink:href="#aF"/><use transform="matrix(0.07222222222222222,0,0,0.07222222222222222,34.52222222222222,0)" xlink:href="#ap"/><use transform="matrix(0.07222222222222222,0,0,0.07222222222222222,48.96666666666666,0)" xlink:href="#aF"/></g><path d="M96-169c-40 0-48 33-48 73s9 75 48 75c24 0 41-14 43-38l32 2c-6 37-31 61-74 61-59 0-76-41-82-99-10-93 101-131 147-64 4 7 5 14 7 22l-32 3c-4-21-16-35-41-35" id="aI"/><path d="M24-231v-30h32v30H24zM24 0v-190h32V0H24" id="aJ"/><g id="q"><use transform="matrix(0.07222222222222222,0,0,0.07222222222222222,0,0)" xlink:href="#ax"/><use transform="matrix(0.07222222222222222,0,0,0.07222222222222222,18.705555555555552,0)" xlink:href="#at"/><use transform="matrix(0.07222222222222222,0,0,0.07222222222222222,33.14999999999999,0)" xlink:href="#az"/><use transform="matrix(0.07222222222222222,0,0,0.07222222222222222,40.37222222222221,0)" xlink:href="#at"/><use transform="matrix(0.07222222222222222,0,0,0.07222222222222222,54.816666666666656,0)" xlink:href="#aI"/><use transform="matrix(0.07222222222222222,0,0,0.07222222222222222,67.81666666666665,0)" xlink:href="#az"/><use transform="matrix(0.07222222222222222,0,0,0.07222222222222222,75.03888888888886,0)" xlink:href="#aJ"/><use transform="matrix(0.07222222222222222,0,0,0.07222222222222222,80.7444444444444,0)" xlink:href="#ap"/><use transform="matrix(0.07222222222222222,0,0,0.07222222222222222,95.18888888888884,0)" xlink:href="#aE"/></g><g id="r"><use transform="matrix(0.07222222222222222,0,0,0.07222222222222222,0,0)" xlink:href="#aq"/><use transform="matrix(0.07222222222222222,0,0,0.07222222222222222,18.705555555555552,0)" xlink:href="#as"/><use transform="matrix(0.07222222222222222,0,0,0.07222222222222222,33.14999999999999,0)" xlink:href="#ay"/><use transform="matrix(0.07222222222222222,0,0,0.07222222222222222,47.594444444444434,0)" xlink:href="#aE"/><use transform="matrix(0.07222222222222222,0,0,0.07222222222222222,62.03888888888888,0)" xlink:href="#aE"/><use transform="matrix(0.07222222222222222,0,0,0.07222222222222222,76.48333333333332,0)" xlink:href="#at"/><use transform="matrix(0.07222222222222222,0,0,0.07222222222222222,90.92777777777776,0)" xlink:href="#au"/></g><path d="M210-169c-67 3-38 105-44 169h-31v-121c0-29-5-50-35-48C34-165 62-65 56 0H25l-1-190h30c1 10-1 24 2 32 10-44 99-50 107 0 11-21 27-35 58-36 85-2 47 119 55 194h-31v-121c0-29-5-49-35-48" id="aK"/><path d="M84 4C-5 8 30-112 23-190h32v120c0 31 7 50 39 49 72-2 45-101 50-169h31l1 190h-30c-1-10 1-25-2-33-11 22-28 36-60 37" id="aL"/><path d="M141 0L90-78 38 0H4l68-98-65-92h35l48 74 47-74h35l-64 92 68 98h-35" id="aM"/><g id="s"><use transform="matrix(0.07222222222222222,0,0,0.07222222222222222,0,0)" xlink:href="#ax"/><use transform="matrix(0.07222222222222222,0,0,0.07222222222222222,18.705555555555552,0)" xlink:href="#at"/><use transform="matrix(0.07222222222222222,0,0,0.07222222222222222,33.14999999999999,0)" xlink:href="#aK"/><use transform="matrix(0.07222222222222222,0,0,0.07222222222222222,54.74444444444443,0)" xlink:href="#aL"/><use transform="matrix(0.07222222222222222,0,0,0.07222222222222222,69.18888888888887,0)" xlink:href="#aM"/></g><g id="t"><use transform="matrix(0.07222222222222222,0,0,0.07222222222222222,0,0)" xlink:href="#aq"/><use transform="matrix(0.07222222222222222,0,0,0.07222222222222222,18.705555555555552,0)" xlink:href="#as"/><use transform="matrix(0.07222222222222222,0,0,0.07222222222222222,33.14999999999999,0)" xlink:href="#ay"/><use transform="matrix(0.07222222222222222,0,0,0.07222222222222222,47.594444444444434,0)" xlink:href="#aE"/><use transform="matrix(0.07222222222222222,0,0,0.07222222222222222,62.03888888888888,0)" xlink:href="#aE"/><use transform="matrix(0.07222222222222222,0,0,0.07222222222222222,76.48333333333332,0)" xlink:href="#at"/><use transform="matrix(0.07222222222222222,0,0,0.07222222222222222,90.92777777777776,0)" xlink:href="#au"/></g><path d="M240 0l2-218c-23 76-54 145-80 218h-23L58-218 59 0H30v-248h44l77 211c21-75 51-140 76-211h43V0h-30" id="aN"/><g id="u"><use transform="matrix(0.07222222222222222,0,0,0.07222222222222222,0,0)" xlink:href="#aN"/><use transform="matrix(0.07222222222222222,0,0,0.07222222222222222,21.59444444444444,0)" xlink:href="#aL"/><use transform="matrix(0.07222222222222222,0,0,0.07222222222222222,36.038888888888884,0)" xlink:href="#aM"/></g><path d="M197 0v-115H63V0H30v-248h33v105h134v-105h34V0h-34" id="aO"/><g id="v"><use transform="matrix(0.07222222222222222,0,0,0.07222222222222222,0,0)" xlink:href="#aq"/><use transform="matrix(0.07222222222222222,0,0,0.07222222222222222,18.705555555555552,0)" xlink:href="#aO"/><use transform="matrix(0.07222222222222222,0,0,0.07222222222222222,37.411111111111104,0)" xlink:href="#ax"/><use transform="matrix(0.07222222222222222,0,0,0.07222222222222222,56.11666666666666,0)" xlink:href="#aB"/></g><path d="M135-143c-3-34-86-38-87 0 15 53 115 12 119 90S17 21 10-45l28-5c4 36 97 45 98 0-10-56-113-15-118-90-4-57 82-63 122-42 12 7 21 19 24 35" id="aP"/><path d="M9 0v-24l116-142H16v-24h144v24L44-24h123V0H9" id="aQ"/><g id="w"><use transform="matrix(0.07222222222222222,0,0,0.07222222222222222,0,0)" xlink:href="#aB"/><use transform="matrix(0.07222222222222222,0,0,0.07222222222222222,18.705555555555552,0)" xlink:href="#at"/><use transform="matrix(0.07222222222222222,0,0,0.07222222222222222,33.14999999999999,0)" xlink:href="#aP"/><use transform="matrix(0.07222222222222222,0,0,0.07222222222222222,46.149999999999984,0)" xlink:href="#aJ"/><use transform="matrix(0.07222222222222222,0,0,0.07222222222222222,51.85555555555555,0)" xlink:href="#aQ"/><use transform="matrix(0.07222222222222222,0,0,0.07222222222222222,64.85555555555554,0)" xlink:href="#at"/></g><path d="M160-131c35 5 61 23 61 61C221 17 115-2 30 0v-248c76 3 177-17 177 60 0 33-19 50-47 57zm-97-11c50-1 110 9 110-42 0-47-63-36-110-37v79zm0 115c55-2 124 14 124-45 0-56-70-42-124-44v89" id="aR"/><path d="M101-234c-31-9-42 10-38 44h38v23H63V0H32v-167H5v-23h27c-7-52 17-82 69-68v24" id="aS"/><g id="x"><use transform="matrix(0.07222222222222222,0,0,0.07222222222222222,0,0)" xlink:href="#aR"/><use transform="matrix(0.07222222222222222,0,0,0.07222222222222222,17.333333333333332,0)" xlink:href="#aL"/><use transform="matrix(0.07222222222222222,0,0,0.07222222222222222,31.777777777777775,0)" xlink:href="#aS"/><use transform="matrix(0.07222222222222222,0,0,0.07222222222222222,38.49444444444444,0)" xlink:href="#aS"/><use transform="matrix(0.07222222222222222,0,0,0.07222222222222222,45.71666666666666,0)" xlink:href="#at"/><use transform="matrix(0.07222222222222222,0,0,0.07222222222222222,60.161111111111104,0)" xlink:href="#aF"/></g><g id="y"><use transform="matrix(0.07222222222222222,0,0,0.07222222222222222,0,0)" xlink:href="#aq"/><use transform="matrix(0.07222222222222222,0,0,0.07222222222222222,18.705555555555552,0)" xlink:href="#ap"/><use transform="matrix(0.07222222222222222,0,0,0.07222222222222222,33.14999999999999,0)" xlink:href="#aE"/><use transform="matrix(0.07222222222222222,0,0,0.07222222222222222,47.594444444444434,0)" xlink:href="#az"/><use transform="matrix(0.07222222222222222,0,0,0.07222222222222222,54.816666666666656,0)" xlink:href="#aF"/><use transform="matrix(0.07222222222222222,0,0,0.07222222222222222,63.4111111111111,0)" xlink:href="#ap"/><use transform="matrix(0.07222222222222222,0,0,0.07222222222222222,77.85555555555555,0)" xlink:href="#au"/></g><path fill="#1071e5" d="M205 0l-28-72H64L36 0H1l101-248h38L239 0h-34zm-38-99l-47-123c-12 45-31 82-46 123h93" id="aT"/><path fill="#1071e5" d="M84 4C-5 8 30-112 23-190h32v120c0 31 7 50 39 49 72-2 45-101 50-169h31l1 190h-30c-1-10 1-25-2-33-11 22-28 36-60 37" id="aU"/><path fill="#1071e5" d="M114-163C36-179 61-72 57 0H25l-1-190h30c1 12-1 29 2 39 6-27 23-49 58-41v29" id="aV"/><path fill="#1071e5" d="M100-194c62-1 85 37 85 99 1 63-27 99-86 99S16-35 15-95c0-66 28-99 85-99zM99-20c44 1 53-31 53-75 0-43-8-75-51-75s-53 32-53 75 10 74 51 75" id="aW"/><path fill="#1071e5" d="M141-36C126-15 110 5 73 4 37 3 15-17 15-53c-1-64 63-63 125-63 3-35-9-54-41-54-24 1-41 7-42 31l-33-3c5-37 33-52 76-52 45 0 72 20 72 64v82c-1 20 7 32 28 27v20c-31 9-61-2-59-35zM48-53c0 20 12 33 32 33 41-3 63-29 60-74-43 2-92-5-92 41" id="aX"/><g id="z"><use transform="matrix(0.07222222222222222,0,0,0.07222222222222222,0,0)" xlink:href="#aT"/><use transform="matrix(0.07222222222222222,0,0,0.07222222222222222,17.333333333333332,0)" xlink:href="#aU"/><use transform="matrix(0.07222222222222222,0,0,0.07222222222222222,31.777777777777775,0)" xlink:href="#aV"/><use transform="matrix(0.07222222222222222,0,0,0.07222222222222222,40.37222222222222,0)" xlink:href="#aW"/><use transform="matrix(0.07222222222222222,0,0,0.07222222222222222,54.81666666666666,0)" xlink:href="#aV"/><use transform="matrix(0.07222222222222222,0,0,0.07222222222222222,63.411111111111104,0)" xlink:href="#aX"/></g><path fill="#1071e5" d="M232-93c-1 65-40 97-104 97C67 4 28-28 28-90v-158h33c8 89-33 224 67 224 102 0 64-133 71-224h33v155" id="aY"/><path fill="#1071e5" d="M135-143c-3-34-86-38-87 0 15 53 115 12 119 90S17 21 10-45l28-5c4 36 97 45 98 0-10-56-113-15-118-90-4-57 82-63 122-42 12 7 21 19 24 35" id="aZ"/><path fill="#1071e5" d="M100-194c63 0 86 42 84 106H49c0 40 14 67 53 68 26 1 43-12 49-29l28 8c-11 28-37 45-77 45C44 4 14-33 15-96c1-61 26-98 85-98zm52 81c6-60-76-77-97-28-3 7-6 17-6 28h103" id="ba"/><g id="A"><use transform="matrix(0.07222222222222222,0,0,0.07222222222222222,0,0)" xlink:href="#aY"/><use transform="matrix(0.07222222222222222,0,0,0.07222222222222222,18.705555555555552,0)" xlink:href="#aZ"/><use transform="matrix(0.07222222222222222,0,0,0.07222222222222222,31.70555555555555,0)" xlink:href="#ba"/><use transform="matrix(0.07222222222222222,0,0,0.07222222222222222,46.149999999999984,0)" xlink:href="#aV"/></g><path fill="#1071e5" d="M212-179c-10-28-35-45-73-45-59 0-87 40-87 99 0 60 29 101 89 101 43 0 62-24 78-52l27 14C228-24 195 4 139 4 59 4 22-46 18-125c-6-104 99-153 187-111 19 9 31 26 39 46" id="bb"/><path fill="#1071e5" d="M24 0v-261h32V0H24" id="bc"/><path fill="#1071e5" d="M96-169c-40 0-48 33-48 73s9 75 48 75c24 0 41-14 43-38l32 2c-6 37-31 61-74 61-59 0-76-41-82-99-10-93 101-131 147-64 4 7 5 14 7 22l-32 3c-4-21-16-35-41-35" id="bd"/><path fill="#1071e5" d="M143 0L79-87 56-68V0H24v-261h32v163l83-92h37l-77 82L181 0h-38" id="be"/><g id="B"><use transform="matrix(0.07222222222222222,0,0,0.07222222222222222,0,0)" xlink:href="#bb"/><use transform="matrix(0.07222222222222222,0,0,0.07222222222222222,18.705555555555552,0)" xlink:href="#bc"/><use transform="matrix(0.07222222222222222,0,0,0.07222222222222222,24.411111111111108,0)" xlink:href="#aW"/><use transform="matrix(0.07222222222222222,0,0,0.07222222222222222,38.855555555555554,0)" xlink:href="#bd"/><use transform="matrix(0.07222222222222222,0,0,0.07222222222222222,51.85555555555555,0)" xlink:href="#be"/></g><path fill="#1071e5" d="M30-248c118-7 216 8 213 122C240-48 200 0 122 0H30v-248zM63-27c89 8 146-16 146-99s-60-101-146-95v194" id="bf"/><path fill="#1071e5" d="M210-169c-67 3-38 105-44 169h-31v-121c0-29-5-50-35-48C34-165 62-65 56 0H25l-1-190h30c1 10-1 24 2 32 10-44 99-50 107 0 11-21 27-35 58-36 85-2 47 119 55 194h-31v-121c0-29-5-49-35-48" id="bg"/><path fill="#1071e5" d="M24-231v-30h32v30H24zM24 0v-190h32V0H24" id="bh"/><path fill="#1071e5" d="M117-194c89-4 53 116 60 194h-32v-121c0-31-8-49-39-48C34-167 62-67 57 0H25l-1-190h30c1 10-1 24 2 32 11-22 29-35 61-36" id="bi"/><g id="C"><use transform="matrix(0.07222222222222222,0,0,0.07222222222222222,0,0)" xlink:href="#bf"/><use transform="matrix(0.07222222222222222,0,0,0.07222222222222222,18.705555555555552,0)" xlink:href="#aW"/><use transform="matrix(0.07222222222222222,0,0,0.07222222222222222,33.14999999999999,0)" xlink:href="#bg"/><use transform="matrix(0.07222222222222222,0,0,0.07222222222222222,54.74444444444443,0)" xlink:href="#aX"/><use transform="matrix(0.07222222222222222,0,0,0.07222222222222222,69.18888888888887,0)" xlink:href="#bh"/><use transform="matrix(0.07222222222222222,0,0,0.07222222222222222,74.89444444444442,0)" xlink:href="#bi"/></g><path fill="#d916a8" d="M233-177c-1 41-23 64-60 70L243 0h-38l-65-103H63V0H30v-248c88 3 205-21 203 71zM63-129c60-2 137 13 137-47 0-61-80-42-137-45v92" id="bj"/><path fill="#d916a8" d="M63-220v92h138v28H63V0H30v-248h175v28H63" id="bk"/><path fill="#d916a8" d="M190 0L58-211 59 0H30v-248h39L202-35l-2-213h31V0h-41" id="bl"/><path fill="#d916a8" d="M100-194c62-1 85 37 85 99 1 63-27 99-86 99S16-35 15-95c0-66 28-99 85-99zM99-20c44 1 53-31 53-75 0-43-8-75-51-75s-53 32-53 75 10 74 51 75" id="bm"/><path fill="#d916a8" d="M212-179c-10-28-35-45-73-45-59 0-87 40-87 99 0 60 29 101 89 101 43 0 62-24 78-52l27 14C228-24 195 4 139 4 59 4 22-46 18-125c-6-104 99-153 187-111 19 9 31 26 39 46" id="bn"/><g id="D"><use transform="matrix(0.07222222222222222,0,0,0.07222222222222222,0,0)" xlink:href="#bj"/><use transform="matrix(0.07222222222222222,0,0,0.07222222222222222,18.705555555555552,0)" xlink:href="#bk"/><use transform="matrix(0.07222222222222222,0,0,0.07222222222222222,34.52222222222222,0)" xlink:href="#bl"/><use transform="matrix(0.07222222222222222,0,0,0.07222222222222222,53.227777777777774,0)" xlink:href="#bm"/><use transform="matrix(0.07222222222222222,0,0,0.07222222222222222,67.67222222222222,0)" xlink:href="#bn"/></g><path fill="#d916a8" d="M197 0v-115H63V0H30v-248h33v105h134v-105h34V0h-34" id="bo"/><path fill="#d916a8" d="M30-248c118-7 216 8 213 122C240-48 200 0 122 0H30v-248zM63-27c89 8 146-16 146-99s-60-101-146-95v194" id="bp"/><g id="E"><use transform="matrix(0.07222222222222222,0,0,0.07222222222222222,0,0)" xlink:href="#bn"/><use transform="matrix(0.07222222222222222,0,0,0.07222222222222222,18.705555555555552,0)" xlink:href="#bo"/><use transform="matrix(0.07222222222222222,0,0,0.07222222222222222,37.411111111111104,0)" xlink:href="#bp"/><use transform="matrix(0.07222222222222222,0,0,0.07222222222222222,56.11666666666666,0)" xlink:href="#bj"/></g><path fill="#d916a8" d="M24 0v-261h32V0H24" id="bq"/><path fill="#d916a8" d="M96-169c-40 0-48 33-48 73s9 75 48 75c24 0 41-14 43-38l32 2c-6 37-31 61-74 61-59 0-76-41-82-99-10-93 101-131 147-64 4 7 5 14 7 22l-32 3c-4-21-16-35-41-35" id="br"/><path fill="#d916a8" d="M143 0L79-87 56-68V0H24v-261h32v163l83-92h37l-77 82L181 0h-38" id="bs"/><g id="F"><use transform="matrix(0.07222222222222222,0,0,0.07222222222222222,0,0)" xlink:href="#bn"/><use transform="matrix(0.07222222222222222,0,0,0.07222222222222222,18.705555555555552,0)" xlink:href="#bq"/><use transform="matrix(0.07222222222222222,0,0,0.07222222222222222,24.411111111111108,0)" xlink:href="#bm"/><use transform="matrix(0.07222222222222222,0,0,0.07222222222222222,38.855555555555554,0)" xlink:href="#br"/><use transform="matrix(0.07222222222222222,0,0,0.07222222222222222,51.85555555555555,0)" xlink:href="#bs"/></g><path fill="#d916a8" d="M210-169c-67 3-38 105-44 169h-31v-121c0-29-5-50-35-48C34-165 62-65 56 0H25l-1-190h30c1 10-1 24 2 32 10-44 99-50 107 0 11-21 27-35 58-36 85-2 47 119 55 194h-31v-121c0-29-5-49-35-48" id="bt"/><path fill="#d916a8" d="M141-36C126-15 110 5 73 4 37 3 15-17 15-53c-1-64 63-63 125-63 3-35-9-54-41-54-24 1-41 7-42 31l-33-3c5-37 33-52 76-52 45 0 72 20 72 64v82c-1 20 7 32 28 27v20c-31 9-61-2-59-35zM48-53c0 20 12 33 32 33 41-3 63-29 60-74-43 2-92-5-92 41" id="bu"/><path fill="#d916a8" d="M24-231v-30h32v30H24zM24 0v-190h32V0H24" id="bv"/><path fill="#d916a8" d="M117-194c89-4 53 116 60 194h-32v-121c0-31-8-49-39-48C34-167 62-67 57 0H25l-1-190h30c1 10-1 24 2 32 11-22 29-35 61-36" id="bw"/><g id="G"><use transform="matrix(0.07222222222222222,0,0,0.07222222222222222,0,0)" xlink:href="#bp"/><use transform="matrix(0.07222222222222222,0,0,0.07222222222222222,18.705555555555552,0)" xlink:href="#bm"/><use transform="matrix(0.07222222222222222,0,0,0.07222222222222222,33.14999999999999,0)" xlink:href="#bt"/><use transform="matrix(0.07222222222222222,0,0,0.07222222222222222,54.74444444444443,0)" xlink:href="#bu"/><use transform="matrix(0.07222222222222222,0,0,0.07222222222222222,69.18888888888887,0)" xlink:href="#bv"/><use transform="matrix(0.07222222222222222,0,0,0.07222222222222222,74.89444444444442,0)" xlink:href="#bw"/></g><g id="I"><use transform="matrix(0.07407407407407408,0,0,0.07407407407407408,0,0)" xlink:href="#aB"/><use transform="matrix(0.07407407407407408,0,0,0.07407407407407408,19.185185185185187,0)" xlink:href="#aC"/><use transform="matrix(0.07407407407407408,0,0,0.07407407407407408,35.40740740740741,0)" xlink:href="#ao"/><use transform="matrix(0.07407407407407408,0,0,0.07407407407407408,54.59259259259259,0)" xlink:href="#ap"/><use transform="matrix(0.07407407407407408,0,0,0.07407407407407408,69.40740740740742,0)" xlink:href="#aq"/></g><g id="J"><use transform="matrix(0.07407407407407408,0,0,0.07407407407407408,0,0)" xlink:href="#aq"/><use transform="matrix(0.07407407407407408,0,0,0.07407407407407408,19.185185185185187,0)" xlink:href="#aO"/><use transform="matrix(0.07407407407407408,0,0,0.07407407407407408,38.370370370370374,0)" xlink:href="#ax"/><use transform="matrix(0.07407407407407408,0,0,0.07407407407407408,57.55555555555556,0)" xlink:href="#aB"/></g><path d="M143 0L79-87 56-68V0H24v-261h32v163l83-92h37l-77 82L181 0h-38" id="bx"/><g id="K"><use transform="matrix(0.07407407407407408,0,0,0.07407407407407408,0,0)" xlink:href="#aq"/><use transform="matrix(0.07407407407407408,0,0,0.07407407407407408,19.185185185185187,0)" xlink:href="#au"/><use transform="matrix(0.07407407407407408,0,0,0.07407407407407408,25.037037037037035,0)" xlink:href="#ap"/><use transform="matrix(0.07407407407407408,0,0,0.07407407407407408,39.851851851851855,0)" xlink:href="#aI"/><use transform="matrix(0.07407407407407408,0,0,0.07407407407407408,53.18518518518519,0)" xlink:href="#bx"/></g><g id="L"><use transform="matrix(0.07407407407407408,0,0,0.07407407407407408,0,0)" xlink:href="#ax"/><use transform="matrix(0.07407407407407408,0,0,0.07407407407407408,19.185185185185187,0)" xlink:href="#ap"/><use transform="matrix(0.07407407407407408,0,0,0.07407407407407408,34,0)" xlink:href="#aK"/><use transform="matrix(0.07407407407407408,0,0,0.07407407407407408,56.14814814814815,0)" xlink:href="#ay"/><use transform="matrix(0.07407407407407408,0,0,0.07407407407407408,70.96296296296296,0)" xlink:href="#aJ"/><use transform="matrix(0.07407407407407408,0,0,0.07407407407407408,76.81481481481481,0)" xlink:href="#aE"/></g><path d="M205 0l-28-72H64L36 0H1l101-248h38L239 0h-34zm-38-99l-47-123c-12 45-31 82-46 123h93" id="by"/><g id="M"><use transform="matrix(0.07407407407407408,0,0,0.07407407407407408,0,0)" xlink:href="#by"/><use transform="matrix(0.07407407407407408,0,0,0.07407407407407408,17.77777777777778,0)" xlink:href="#aL"/><use transform="matrix(0.07407407407407408,0,0,0.07407407407407408,32.592592592592595,0)" xlink:href="#aF"/><use transform="matrix(0.07407407407407408,0,0,0.07407407407407408,41.40740740740741,0)" xlink:href="#ap"/><use transform="matrix(0.07407407407407408,0,0,0.07407407407407408,56.22222222222223,0)" xlink:href="#aF"/><use transform="matrix(0.07407407407407408,0,0,0.07407407407407408,65.03703703703704,0)" xlink:href="#ay"/></g><path d="M232-93c-1 65-40 97-104 97C67 4 28-28 28-90v-158h33c8 89-33 224 67 224 102 0 64-133 71-224h33v155" id="bz"/><g id="N"><use transform="matrix(0.07407407407407408,0,0,0.07407407407407408,0,0)" xlink:href="#bz"/><use transform="matrix(0.07407407407407408,0,0,0.07407407407407408,19.185185185185187,0)" xlink:href="#aP"/><use transform="matrix(0.07407407407407408,0,0,0.07407407407407408,32.51851851851852,0)" xlink:href="#at"/><use transform="matrix(0.07407407407407408,0,0,0.07407407407407408,47.33333333333334,0)" xlink:href="#aF"/></g><path d="M101-251c82-7 93 87 43 132L82-64C71-53 59-42 53-27h129V0H18c2-99 128-94 128-182 0-28-16-43-45-43s-46 15-49 41l-32-3c6-41 34-60 81-64" id="bA"/><path d="M54-142c48-35 137-8 131 61C196 18 31 33 14-55l32-4c7 23 22 37 52 37 35-1 51-22 54-58 4-55-73-65-99-34H22l8-134h141v27H59" id="bB"/><path d="M110-160c48 1 74 30 74 79 0 53-28 85-80 85-65 0-83-55-86-122-5-90 50-162 133-122 14 7 22 21 27 39l-31 6c-5-40-67-38-82-6-9 19-15 44-15 74 11-20 30-34 60-33zm-7 138c34 0 49-23 49-58s-16-56-50-56c-29 0-50 16-49 49 1 36 15 65 50 65" id="bC"/><path d="M16-82v-28h88v28H16" id="bD"/><path d="M115-194c53 0 69 39 70 98 0 66-23 100-70 100C84 3 66-7 56-30L54 0H23l1-261h32v101c10-23 28-34 59-34zm-8 174c40 0 45-34 45-75 0-40-5-75-45-74-42 0-51 32-51 76 0 43 10 73 51 73" id="bE"/><g id="O"><use transform="matrix(0.07222222222222222,0,0,0.07222222222222222,0,0)" xlink:href="#bA"/><use transform="matrix(0.07222222222222222,0,0,0.07222222222222222,14.444444444444443,0)" xlink:href="#bB"/><use transform="matrix(0.07222222222222222,0,0,0.07222222222222222,28.888888888888886,0)" xlink:href="#bC"/><use transform="matrix(0.07222222222222222,0,0,0.07222222222222222,43.33333333333333,0)" xlink:href="#bD"/><use transform="matrix(0.07222222222222222,0,0,0.07222222222222222,51.92777777777777,0)" xlink:href="#bE"/><use transform="matrix(0.07222222222222222,0,0,0.07222222222222222,66.3722222222222,0)" xlink:href="#aJ"/><use transform="matrix(0.07222222222222222,0,0,0.07222222222222222,72.07777777777775,0)" xlink:href="#az"/></g><path d="M155-56V0h-30v-56H8v-25l114-167h33v167h35v25h-35zm-30-156c-27 46-58 90-88 131h88v-131" id="bF"/><g id="P"><use transform="matrix(0.07222222222222222,0,0,0.07222222222222222,0,0)" xlink:href="#bC"/><use transform="matrix(0.07222222222222222,0,0,0.07222222222222222,14.444444444444443,0)" xlink:href="#bF"/><use transform="matrix(0.07222222222222222,0,0,0.07222222222222222,28.888888888888886,0)" xlink:href="#bD"/><use transform="matrix(0.07222222222222222,0,0,0.07222222222222222,37.48333333333333,0)" xlink:href="#bE"/><use transform="matrix(0.07222222222222222,0,0,0.07222222222222222,51.92777777777777,0)" xlink:href="#aJ"/><use transform="matrix(0.07222222222222222,0,0,0.07222222222222222,57.633333333333326,0)" xlink:href="#az"/></g><path d="M143 4C61 4 22-44 18-125c-5-107 100-154 193-111 17 8 29 25 37 43l-32 9c-13-25-37-40-76-40-61 0-88 39-88 99 0 61 29 100 91 101 35 0 62-11 79-27v-45h-74v-28h105v86C228-13 192 4 143 4" id="bG"/><g id="Q"><use transform="matrix(0.1111111111111111,0,0,0.1111111111111111,0,0)" xlink:href="#aN"/><use transform="matrix(0.1111111111111111,0,0,0.1111111111111111,33.22222222222222,0)" xlink:href="#bG"/><use transform="matrix(0.1111111111111111,0,0,0.1111111111111111,64.33333333333333,0)" xlink:href="#av"/></g><g id="R"><use transform="matrix(0.1111111111111111,0,0,0.1111111111111111,0,0)" xlink:href="#aB"/><use transform="matrix(0.1111111111111111,0,0,0.1111111111111111,28.777777777777775,0)" xlink:href="#aC"/><use transform="matrix(0.1111111111111111,0,0,0.1111111111111111,53.11111111111111,0)" xlink:href="#ao"/><use transform="matrix(0.1111111111111111,0,0,0.1111111111111111,81.88888888888889,0)" xlink:href="#ap"/><use transform="matrix(0.1111111111111111,0,0,0.1111111111111111,104.11111111111111,0)" xlink:href="#aq"/></g><g id="S"><use transform="matrix(0.1111111111111111,0,0,0.1111111111111111,0,0)" xlink:href="#aq"/><use transform="matrix(0.1111111111111111,0,0,0.1111111111111111,28.777777777777775,0)" xlink:href="#aO"/><use transform="matrix(0.1111111111111111,0,0,0.1111111111111111,57.55555555555555,0)" xlink:href="#ax"/><use transform="matrix(0.1111111111111111,0,0,0.1111111111111111,86.33333333333333,0)" xlink:href="#aB"/></g><path d="M30-248c87 1 191-15 191 75 0 78-77 80-158 76V0H30v-248zm33 125c57 0 124 11 124-50 0-59-68-47-124-48v98" id="bH"/><g id="T"><use transform="matrix(0.1111111111111111,0,0,0.1111111111111111,0,0)" xlink:href="#bH"/><use transform="matrix(0.1111111111111111,0,0,0.1111111111111111,26.666666666666664,0)" xlink:href="#ap"/><use transform="matrix(0.1111111111111111,0,0,0.1111111111111111,48.888888888888886,0)" xlink:href="#aF"/><use transform="matrix(0.1111111111111111,0,0,0.1111111111111111,62.11111111111111,0)" xlink:href="#az"/><use transform="matrix(0.1111111111111111,0,0,0.1111111111111111,73.22222222222221,0)" xlink:href="#aP"/></g></defs></g></svg>